<svg id="Layer_1" data-name="Layer 1" xmlns="http://www.w3.org/2000/svg" width="330.31mm" height="136.17mm" viewBox="0 0 936.31 385.99"><defs><style>.cls-1{fill:#bec4b8;}.cls-2{fill:#ce3132;}.cls-3{fill:#00904a;}</style></defs><title>kontaktlogo</title><rect class="cls-1" width="936.31" height="385.99"/><path class="cls-2" d="M295.36,116.94a7.3,7.3,0,0,0-.82-1.67l-1.62-2.65c-.69-1-1.19-1.74-1.51-2.29a2.85,2.85,0,0,1-.5-1.13q0-1.24,2.87-4.1c1.91-1.91,3.32-2.86,4.2-2.86a5.44,5.44,0,0,1,1.43.8h1.33c.8.41,1.63.8,2.47,1.15s1.67.73,2.47,1.11a15.52,15.52,0,0,1,4.49,2.65,13.69,13.69,0,0,0,2.84,2.24,15.79,15.79,0,0,0,1.07,1.18c.54.55,1.26,1.24,2.18,2.07a2,2,0,0,1,.44.49l.59.75q1.9,2.26,3.22,4.18a19.7,19.7,0,0,1,2,3.55,20.92,20.92,0,0,1,1.26,4.27,26.16,26.16,0,0,1,.43,4.93,22.67,22.67,0,0,1-1.34,8.31,9.79,9.79,0,0,1-4.13,5,5.47,5.47,0,0,1-.76.51c-.32.19-.65.4-1,.64l-.57.58a9.72,9.72,0,0,1-2.52,1.8,40.29,40.29,0,0,1-4.6,2.07c-2.52,1-5.17,2-8,3.2q-1.15.57-2,.93a3.43,3.43,0,0,1-1.27.35,3.83,3.83,0,0,0-1.56.18c-.17.12-.33,1.31-.48,3.56-.09,1.46-.18,2.89-.27,4.28a4.37,4.37,0,0,0,.47,1.77,9.78,9.78,0,0,0,1.45,2.15,17.18,17.18,0,0,1-.92,1.75,20.29,20.29,0,0,1-1.26,1.82,6.87,6.87,0,0,1-1.65,1.81,2.78,2.78,0,0,1-1.6.6,2.26,2.26,0,0,1-2.16-1.56,12,12,0,0,1-.69-4.67,13.2,13.2,0,0,1,.31-2.47c.21-1,.52-2.22.93-3.67l-.22-2.59c-.38-.17-.76-.36-1.13-.57s-.73-.44-1.09-.67a2.81,2.81,0,0,1-1.13-.8,1.46,1.46,0,0,1-.34-.89c0-.36.72-.89,2.16-1.58s2.16-1.63,2.16-2.78a7.77,7.77,0,0,0-.2-1.43,7,7,0,0,1-.21-1.37q.41-2.58.9-5.21a13.23,13.23,0,0,0,.22-1.6c.09-.89.21-2.16.35-3.82.09-.5.23-1.14.41-1.91s.36-1.66.57-2.67l-.31-1.6Zm3.65-5.3a.46.46,0,0,0-.38.14.64.64,0,0,0-.11.4q5.25,5.46,5.25,8.09a55.41,55.41,0,0,1-1.72,6.91,67.45,67.45,0,0,1-2.33,7.4l.36,1.86c-.81,3-1.4,5.57-1.81,7.71a29.46,29.46,0,0,0-.59,5.14,1.08,1.08,0,0,0,.19.71.72.72,0,0,0,.56.22,5.81,5.81,0,0,0,1.6-.4,21.47,21.47,0,0,0,3-1.38c.77-.41,1.54-.8,2.31-1.15l2.36-1.11c.33-.18.7-.41,1.13-.69s.9-.62,1.4-1c.71-.54,1.28-1,1.69-1.31l.81-.65a8.68,8.68,0,0,0,2.88-3.33,10.75,10.75,0,0,0,1-4.76,14.8,14.8,0,0,0-.38-3.33,20.28,20.28,0,0,0-1.13-3.47l-.09-1.06a2.1,2.1,0,0,0-.31-.51l-.49-.65a5.42,5.42,0,0,1-.58-.71,5.67,5.67,0,0,1-.58-1.16,17.39,17.39,0,0,0-2.58-3.42,58.23,58.23,0,0,0-5-4.71c-.24-.2-.51-.45-.8-.73l-1-.91c-.56-.27-1.23-.57-2-.91S300,112.12,299,111.64Z"/><path class="cls-2" d="M331.07,158.05a37.83,37.83,0,0,1,.2-4.2,19.73,19.73,0,0,1,.46-2.69c-.06-.51-.12-1-.22-1.56s.08-1.66.22-3.11.38-3.35.67-5.7.5-4,.69-5.22.34-2,.42-2.25c-.05-.5-.12-1-.2-1.64a17.42,17.42,0,0,0-.37-2l-1-.71-.23-.53c.06-.83.11-1.67.16-2.52a22.63,22.63,0,0,1,.29-2.55,13.46,13.46,0,0,1,.42-2.8,21.62,21.62,0,0,1,.69-2.1,3.34,3.34,0,0,0,.29-.62,6.1,6.1,0,0,1,.43-.84c.26-1.07.53-2.14.8-3.2s.54-2.11.84-3.12a6,6,0,0,1,1.91-2.44,6.63,6.63,0,0,1,3-1.2,16,16,0,0,1,2.13-1,4.18,4.18,0,0,1,1.42-.34,1.16,1.16,0,0,1,1,.49,2.31,2.31,0,0,1,.36,1.38c0,.24-.12,1.06-.36,2.47s-.6,3.36-1.11,5.85c-.09.83-.24,1.81-.44,3s-.49,2.5-.85,4.07q-.66,2.63-1.31,5.76t-1.18,6.92c-.15,1.06-.31,2.12-.49,3.15s-.34,2.09-.49,3.16c-.18,1.22-.33,2.37-.47,3.45a24.5,24.5,0,0,0-.19,2.91,6.81,6.81,0,0,0,.06.93,5.12,5.12,0,0,1,.07.85,4.7,4.7,0,0,1,0,1.29c-.08.53-.16,1.17-.25,1.91s-.22,1.36-.31,1.93a9.59,9.59,0,0,0-.14,1.31c0,1.52,0,2.74.12,3.67a10.49,10.49,0,0,0,.24,1.85c.21.8.41,1.66.62,2.58,0,.5-.66,1.25-2,2.24a6.06,6.06,0,0,1-2.89,1.49,1.43,1.43,0,0,1-1-.37,4.55,4.55,0,0,1-.86-1.14,11.36,11.36,0,0,1-.49-1.29,3.55,3.55,0,0,1-.17-1.07,3.18,3.18,0,0,1,.17-.84,3.16,3.16,0,0,0,.18-.84,12.55,12.55,0,0,0-.8-2.23c-.06.3-.09.24-.09-.17Z"/><path class="cls-2" d="M382.7,154.67c.18.38.37.83.6,1.33s.48,1.09.77,1.74a2.33,2.33,0,0,1,.32.55,1.39,1.39,0,0,1,.09.47,59.13,59.13,0,0,1-5.61,2.27c-2,.68-4,1.31-6.18,1.91-.56.15-1.24.3-2,.46s-1.68.38-2.69.65c-.8.3-1.79.64-3,1s-2.53.8-4.07,1.22c-1,.27-2,.52-2.95.75s-2,.47-3,.67c-1.22.3-2.34.52-3.36.67a18.27,18.27,0,0,1-2.6.22,7,7,0,0,1-4.2-1.06,3.79,3.79,0,0,1-1.4-3.21,11.46,11.46,0,0,1,.77-4.16,12.47,12.47,0,0,1,2.38-3.75,17.8,17.8,0,0,1,1.18-1.6c.49-.6,1.06-1.26,1.71-2a17.19,17.19,0,0,0,1.74-1.66c.71-.76,1.57-1.81,2.58-3.14.68-.83,1.38-1.7,2.11-2.62l2.11-2.71c.33-.42.74-1,1.23-1.65s1-1.47,1.66-2.36c.39-.35.82-.8,1.32-1.33s1-1.17,1.61-1.91q1.26-1.61,2.65-3.67t3-4.56a70.53,70.53,0,0,0,3.72-6.25,9.36,9.36,0,0,0,1.22-3.44,1.62,1.62,0,0,0-.72-1.18,8.93,8.93,0,0,0-2.17-1.23c-.84-.35-1.57-.62-2.2-.82a7.69,7.69,0,0,0-1.63-.33l-3.38-.13-1.2-.38c-.42-.13-.87-.26-1.38-.38l-2.18.71a13.46,13.46,0,0,0-1.53-.4,7,7,0,0,0-1.36-.13c-1.78.12-3.42.27-4.93.44l-1.2-.44a1.23,1.23,0,0,1-.34-.69c-.07-.34-.18-.79-.33-1.36.21-.38.47-.88.8-1.49s.68-1.29,1.07-2.06c.11-.42.19-.73.22-.94a4.45,4.45,0,0,1,1.8-2.38,6.33,6.33,0,0,1,3.45-.82,18.82,18.82,0,0,1,1.93.09l1.58.18.63.49c.59-.15,1.07-.29,1.46-.43a3.1,3.1,0,0,1,.89-.2l5.29,1c.51,0,1.13.09,1.87.2s1.58.24,2.53.42a13.81,13.81,0,0,0,1.58.84l2.25,1a9.74,9.74,0,0,1,3,1.71,8.89,8.89,0,0,1,2,2.42,9.77,9.77,0,0,1,1,2.2,7.25,7.25,0,0,1,.31,2,9.83,9.83,0,0,1-.36,2.72,7.58,7.58,0,0,1-1.07,2.26l-.57,1.73a4.78,4.78,0,0,1-.43,1,7.66,7.66,0,0,1-.82,1.25c-.5.68-1,1.38-1.64,2.09a5.33,5.33,0,0,1-.8,1.22,12.66,12.66,0,0,1-1.47,1.45,1.48,1.48,0,0,0-.43.4,4.38,4.38,0,0,0-.46.75,14.85,14.85,0,0,1-1.51,2.4c-.69.93-1.53,2-2.54,3.21-1.33,1.54-2.38,2.77-3.13,3.71s-1.29,1.59-1.58,2-.72.61-1.07.93-.74.71-1.15,1.16l-.58,1.33a13.07,13.07,0,0,1-1.56,2.29q-1.34,1.71-3.73,4.61a40.32,40.32,0,0,0-3.47,4.35,5.82,5.82,0,0,0-1.12,2.31.47.47,0,0,0,.36.45l1.74-.31c.41.09.81.16,1.2.22a18.34,18.34,0,0,1,2.22-.22l1.56.44a15.64,15.64,0,0,1,2.2-.55,9.66,9.66,0,0,1,1.62-.16,26.56,26.56,0,0,0,4.22-.31,16.31,16.31,0,0,0,3.61-1,18.82,18.82,0,0,0,2.22-.37c.89-.2,1.91-.44,3.07-.74.32-.14.67-.28,1-.4a10.78,10.78,0,0,0,1.11-.45c.48-.08.93-.17,1.36-.26A6.62,6.62,0,0,0,382.7,154.67Z"/><path class="cls-2" d="M421.07,154.67c.18.38.38.83.6,1.33s.49,1.09.78,1.74a2.25,2.25,0,0,1,.31.55,1.39,1.39,0,0,1,.09.47,58.93,58.93,0,0,1-5.6,2.27c-2,.68-4,1.31-6.18,1.91-.56.15-1.24.3-2,.46s-1.68.38-2.69.65c-.8.3-1.78.64-3,1s-2.53.8-4.07,1.22c-1,.27-2,.52-3,.75s-2,.47-3,.67c-1.21.3-2.33.52-3.35.67a18.38,18.38,0,0,1-2.6.22,7,7,0,0,1-4.21-1.06,3.81,3.81,0,0,1-1.4-3.21,11.26,11.26,0,0,1,.78-4.16,12.28,12.28,0,0,1,2.38-3.75,14.6,14.6,0,0,1,1.18-1.6c.49-.6,1.06-1.26,1.71-2a18.32,18.32,0,0,0,1.74-1.66c.71-.76,1.56-1.81,2.57-3.14.69-.83,1.39-1.7,2.12-2.62l2.11-2.71c.32-.42.73-1,1.22-1.65s1-1.47,1.67-2.36c.38-.35.82-.8,1.31-1.33s1-1.17,1.62-1.91q1.25-1.61,2.65-3.67t3-4.56a70,70,0,0,0,3.71-6.25,9.36,9.36,0,0,0,1.22-3.44,1.64,1.64,0,0,0-.71-1.18,8.84,8.84,0,0,0-2.18-1.23c-.83-.35-1.56-.62-2.2-.82a7.74,7.74,0,0,0-1.62-.33l-3.38-.13-1.2-.38c-.42-.13-.88-.26-1.38-.38l-2.18.71a14,14,0,0,0-1.53-.4,7.11,7.11,0,0,0-1.36-.13c-1.78.12-3.42.27-4.94.44l-1.2-.44a1.17,1.17,0,0,1-.33-.69c-.07-.34-.18-.79-.33-1.36.21-.38.47-.88.8-1.49s.68-1.29,1.06-2.06a8.08,8.08,0,0,0,.23-.94,4.4,4.4,0,0,1,1.8-2.38,6.32,6.32,0,0,1,3.44-.82,18.89,18.89,0,0,1,1.94.09l1.58.18.62.49c.59-.15,1.08-.29,1.47-.43a3,3,0,0,1,.89-.2l5.29,1c.5,0,1.12.09,1.87.2s1.58.24,2.53.42a13,13,0,0,0,1.58.84l2.24,1a9.63,9.63,0,0,1,3,1.71,8.93,8.93,0,0,1,2.05,2.42,9.7,9.7,0,0,1,1,2.2,6.89,6.89,0,0,1,.31,2,10.23,10.23,0,0,1-.35,2.72,7.83,7.83,0,0,1-1.07,2.26L420,122.2a4.63,4.63,0,0,1-.42,1,8.37,8.37,0,0,1-.82,1.25c-.51.68-1.05,1.38-1.65,2.09a5,5,0,0,1-.8,1.22,11.92,11.92,0,0,1-1.47,1.45,1.36,1.36,0,0,0-.42.4,5.12,5.12,0,0,0-.47.75,13.57,13.57,0,0,1-1.51,2.4c-.68.93-1.53,2-2.53,3.21-1.34,1.54-2.38,2.77-3.14,3.71s-1.28,1.59-1.58,2l-1.07.93c-.35.33-.73.71-1.15,1.16l-.58,1.33a12.8,12.8,0,0,1-1.55,2.29q-1.33,1.71-3.74,4.61a41.62,41.62,0,0,0-3.47,4.35,5.75,5.75,0,0,0-1.11,2.31.47.47,0,0,0,.36.45l1.73-.31c.42.09.82.16,1.2.22a18.54,18.54,0,0,1,2.22-.22l1.56.44a16,16,0,0,1,2.2-.55,9.77,9.77,0,0,1,1.63-.16,26.65,26.65,0,0,0,4.22-.31,16.37,16.37,0,0,0,3.6-1,18.49,18.49,0,0,0,2.22-.37c.9-.2,1.92-.44,3.07-.74.33-.14.67-.28,1-.4a11.78,11.78,0,0,0,1.11-.45L420,155A6.48,6.48,0,0,0,421.07,154.67Z"/><path class="cls-2" d="M459.89,154.67l1.69,4.09a14.77,14.77,0,0,1-1.17,1c-.46.34-1,.7-1.63,1.09a22.8,22.8,0,0,0-2.24.89c-.88.38-1.88.82-3,1.33-.86.53-1.56.93-2.11,1.2a3.43,3.43,0,0,1-1.13.4,8.28,8.28,0,0,0-2.11.49c-1,.33-2.37.81-4,1.47l-2.82,1c-1,.34-2,.64-3.09.91l-2.76-.58-1.69.76-1.71,0c-.58,0-1.13-.05-1.67-.11a5,5,0,0,1-1.93-.36,1,1,0,0,1-.65-.88l.27-1.69-.27-.31a3.57,3.57,0,0,1-2-.4c-.34-.27-.51-.89-.51-1.87,0-.45,0-1.18.06-2.22s.11-2.39.2-4.05a3.41,3.41,0,0,1,.29-.93,3.07,3.07,0,0,0,.29-1,2.87,2.87,0,0,1-.26-.71,3,3,0,0,1-.05-.49c.06-1.15.19-2.58.38-4.27s.44-3.69.73-6a41.16,41.16,0,0,0,.89-4.72q-.09-2-.18-4,1.65-7.4,3.38-14.86a7.76,7.76,0,0,1,1-2.53,14.41,14.41,0,0,1,1.75-2.32,2.51,2.51,0,0,0,.58-.48c.15-.27.34-.61.58-1s.52-.86.84-1.36l.87-.54c.4-.23.94-.56,1.62-1q.45-.35,1-.84c.39-.33.84-.71,1.34-1.15a36,36,0,0,0,3.14-2.16,7.12,7.12,0,0,1,3.62-1.4l2.05-.11,1.95-.16a11.84,11.84,0,0,1,1.56-.22l.77-.18a2.43,2.43,0,0,1,.61-.09,4.82,4.82,0,0,1,.73.07l1.27.2c.41,0,.76,0,1.06,0a7.69,7.69,0,0,0,.85,0,5.16,5.16,0,0,1,2.62,1.56,3.66,3.66,0,0,1,.85,2.44,13,13,0,0,1-.6,4.56,2,2,0,0,1-1.89,1.49,3.78,3.78,0,0,1-2.23-1c-.83-.67-3.06-1-6.71-1l-4.49.89a1.65,1.65,0,0,1-.52.53,3.68,3.68,0,0,1-.5.27l-1.56-.58a4.11,4.11,0,0,0-1.6,1.46,19.61,19.61,0,0,0-1.87,3.3,3.94,3.94,0,0,0-.34,1.11,10,10,0,0,0-.11,1.55q-.8,3.21-1.59,6.19c-.51,2.13-.92,3.75-1.23,4.84s-.5,1.77-.56,2-.16.58-.22.85a3.57,3.57,0,0,0-.09.8,1.52,1.52,0,0,0,.23.89.75.75,0,0,0,.67.31c.26,0,.91-.49,1.93-1.47a6.27,6.27,0,0,1,2.29-1.64c.62-.18,1.25-.37,1.89-.58s1.29-.46,2-.76a18.88,18.88,0,0,1,2.11-.35c1.14-.15,2.74-.33,4.78-.54l1.24.36,2.36-.45,1.25.58a5.64,5.64,0,0,1,.82,1.09,11.56,11.56,0,0,1,.69,1.41,10.83,10.83,0,0,1-.58,4,1.87,1.87,0,0,1-1.73,1.38l-2.45-1-6,.6q-3,.28-6,.56a12.69,12.69,0,0,0-5.73,2.44,6.19,6.19,0,0,0-2.22,4.45,14.07,14.07,0,0,1-.32,1.78c-.18.8-.38,1.79-.62,3l.31,1.33c-.27,1.28-.47,2.48-.62,3.6a23.2,23.2,0,0,0-.22,3,1.18,1.18,0,0,0,.13.64c.09.14.19.17.31.11l3.43-.26a13.89,13.89,0,0,1,1.82,0l2.35.18,2.81-.22a15,15,0,0,0,1.93-.71,7,7,0,0,1,2.69-.63,12.83,12.83,0,0,0,2.6-.27,15.47,15.47,0,0,0,2.51-.71c.81-.29,1.6-.6,2.38-.91l2.38-.91a8.14,8.14,0,0,0,1.18-.49Q458.92,155.24,459.89,154.67Z"/><path class="cls-2" d="M476.66,143a4.27,4.27,0,0,0,1.27,2.38,35.26,35.26,0,0,0,3.8,3.67c1.09.92,2.23,1.82,3.4,2.69s2.33,1.76,3.49,2.65l2,1.62,2.8,2.34c.77.59,1.58,1.19,2.42,1.78s1.76,1.18,2.74,1.78l2.17,1.64c.81.59,1.73,1.24,2.76,1.92a3.49,3.49,0,0,1,1.38,1.93,12.68,12.68,0,0,1,.58,3.63l-.4,1.15-.45.23a2.82,2.82,0,0,1-1.17-.38c-.49-.26-1.11-.62-1.85-1.09-.15-.09-.82-.42-2-1l-5.17-2.41a22.6,22.6,0,0,1-3.43-1.8,24.64,24.64,0,0,1-2.84-2.11,20.15,20.15,0,0,0-1.94-1.47c-.79-.53-1.71-1.11-2.78-1.74s-2-1.21-2.84-1.77-1.44-1-1.92-1.43c-1.6-1.3-2.9-2.3-3.91-3a5,5,0,0,0-2.09-1,2.43,2.43,0,0,0-.49,1.29q-.53,2.09-1.13,5.27t-1.31,7.41a2,2,0,0,1-.27,1.14.93.93,0,0,1-.8.38,3.67,3.67,0,0,1-2.62-.85,3.31,3.31,0,0,1-.89-2.54,41.91,41.91,0,0,1,.28-4.76,46.6,46.6,0,0,1,1-5.25q.23-1.2.33-2.16a14.19,14.19,0,0,0,.12-1.76,4.42,4.42,0,0,0-1.76-3.51c-1.17-1-1.76-1.68-1.76-2.1a4.71,4.71,0,0,1,.29-1.71,2.75,2.75,0,0,1,.87-1.18c1-.62,1.88-1.21,2.71-1.77a.9.9,0,0,0,.42-.61,4.48,4.48,0,0,0,.11-1.17V137.4q.13-4,.23-8.22v-1c0-.45,0-1-.09-1.74a8.38,8.38,0,0,1-.05-1.48c0-.46.05-.89.05-1.27-.18-.6-.34-1.1-.47-1.54a4.15,4.15,0,0,1-.2-1.22c0-.35,0-.91.09-1.66s.09-1.3.09-1.63,0-1-.11-1.73-.11-1.3-.11-1.69a6.76,6.76,0,0,1,.73-3.07,10.58,10.58,0,0,1,2.24-2.88,11.75,11.75,0,0,1,3-1.89,8,8,0,0,1,3.13-.65c.51,0,1.26,0,2.25.11s1.77.12,2.33.12a14.08,14.08,0,0,1,3.16,1,16,16,0,0,1,1.82.25,7.9,7.9,0,0,1,1.29.33c.74.36,1.32.63,1.74.82a3.77,3.77,0,0,0,.89.34l1.31.44a3.09,3.09,0,0,1,.91.45l1.36.62,1.75.8a18.24,18.24,0,0,1,3,1.87,26.3,26.3,0,0,1,2.64,2.31,13.34,13.34,0,0,1,2.14,3.13,7.25,7.25,0,0,1,.71,3c0,.3,0,.72-.07,1.27a18.17,18.17,0,0,1-.25,1.84,5.5,5.5,0,0,1-1.33,2.79,21.16,21.16,0,0,1-3.47,3.26,39.06,39.06,0,0,1-3.73,2.6,14.53,14.53,0,0,1-3.21,1.49,4.72,4.72,0,0,0-.88.76,10,10,0,0,1-1.87,1.24c-.95.54-2.24,1.2-3.87,2-3,1.45-5.07,2.41-6.32,2.87S476.66,142.42,476.66,143ZM472,121.54c.56-.42,1.1-.83,1.6-1.23a3,3,0,0,1,2-.6c.35,0,.79.4,1.31,1.18a3.83,3.83,0,0,1,.78,1.75,10.07,10.07,0,0,1-.23,1.43c-.15.74-.38,1.74-.71,3q-1,4.31-1.15,5.4c-.09.72-.28,1.86-.58,3.4a14.26,14.26,0,0,0-.36,1.51.84.84,0,0,0,.16.58.51.51,0,0,0,.42.17q8.85-4.44,9.16-4.62a7.27,7.27,0,0,0,.76-.24c.26-.11.52-.22.75-.34l.67-.84q2.58-1.65,5.34-3.51a11.48,11.48,0,0,0,2.58-2.62,4.7,4.7,0,0,0,.84-2.58,4.4,4.4,0,0,0-1.91-3.24,20.63,20.63,0,0,0-5.74-3.07,39.72,39.72,0,0,0-5.91-1.89,22.33,22.33,0,0,0-4.85-.6,7.59,7.59,0,0,0-4.29,1,3.38,3.38,0,0,0-1.45,3,8.79,8.79,0,0,0,.23,2.29C471.51,121.37,471.72,121.59,472,121.54Z"/><path class="cls-2" d="M507.74,158.05a37.83,37.83,0,0,1,.2-4.2,18.07,18.07,0,0,1,.47-2.69c-.06-.51-.13-1-.22-1.56s.07-1.66.22-3.11.37-3.35.66-5.7.5-4,.7-5.22a20.22,20.22,0,0,1,.42-2.25c-.06-.5-.13-1-.2-1.64a17.61,17.61,0,0,0-.38-2l-1-.71-.22-.53q.09-1.24.15-2.52a22.63,22.63,0,0,1,.29-2.55,12.79,12.79,0,0,1,.43-2.8,21.8,21.8,0,0,1,.68-2.1,3.34,3.34,0,0,0,.29-.62,6.1,6.1,0,0,1,.43-.84c.26-1.07.53-2.14.8-3.2s.55-2.11.84-3.12a6.1,6.1,0,0,1,1.91-2.44,6.63,6.63,0,0,1,3-1.2,17.22,17.22,0,0,1,2.13-1,4.23,4.23,0,0,1,1.42-.34,1.15,1.15,0,0,1,1,.49,2.31,2.31,0,0,1,.36,1.38c0,.24-.12,1.06-.36,2.47s-.6,3.36-1.11,5.85c-.09.83-.24,1.81-.44,3s-.49,2.5-.85,4.07q-.66,2.63-1.31,5.76t-1.18,6.92c-.15,1.06-.31,2.12-.49,3.15s-.34,2.09-.49,3.16c-.17,1.22-.33,2.37-.46,3.45a22.71,22.71,0,0,0-.2,2.91,6.81,6.81,0,0,0,.06.93,5.12,5.12,0,0,1,.07.85,4.34,4.34,0,0,1,0,1.29c-.08.53-.16,1.17-.25,1.91s-.22,1.36-.31,1.93a9.22,9.22,0,0,0-.13,1.31c0,1.52,0,2.74.11,3.67a10.49,10.49,0,0,0,.24,1.85q.32,1.2.63,2.58c0,.5-.67,1.25-2,2.24a6.08,6.08,0,0,1-2.88,1.49,1.4,1.4,0,0,1-1-.37,4.8,4.8,0,0,1-.87-1.14,11.36,11.36,0,0,1-.49-1.29,3.89,3.89,0,0,1-.17-1.07,3.66,3.66,0,0,1,.17-.84,3.16,3.16,0,0,0,.18-.84,11.81,11.81,0,0,0-.8-2.23c-.06.3-.09.24-.09-.17Z"/><path class="cls-2" d="M521.26,150.58a4.86,4.86,0,0,1-.16-.8c0-.21,0-.39,0-.54a7.74,7.74,0,0,1,.36-2.51,4.49,4.49,0,0,1,1.07-1.76,4.64,4.64,0,0,1,.91-.53c.49-.23,1.13-.52,1.94-.85a4.22,4.22,0,0,0,1.35-1,2.12,2.12,0,0,0,.56-1.36,6.19,6.19,0,0,1,.53-1.42c.27-.53.58-1.11.93-1.73a27.37,27.37,0,0,0,1.08-3.07q.88-2.81,2.49-8.23a29.61,29.61,0,0,1,.89-2.84c.29-.81.55-1.49.75-2a22.1,22.1,0,0,1,2.34-5,19.85,19.85,0,0,0,1.36-1.93v-.22l-1.38-2.19,1.73-2,2.23-.44c.44-.06.85-.47,1.22-1.24a9.63,9.63,0,0,1,1.94-2.54,4.17,4.17,0,0,0,1-.56c.46-.31,1-.74,1.76-1.31a10.72,10.72,0,0,1,1.6-1.11,2.38,2.38,0,0,1,1-.35,2.54,2.54,0,0,1,1.73.48,1.67,1.67,0,0,1,.54,1.29,6.84,6.84,0,0,1-1,2.85,6.86,6.86,0,0,0-1,2.84,1.32,1.32,0,0,0,.2.74.91.91,0,0,0,.47.37l5.32,2.89c.3.12.57.59.8,1.4a20,20,0,0,1,.58,3.36c.18,1.18.32,2.17.42,3a16.24,16.24,0,0,1,.16,1.89c-.21,1.28-.42,2.57-.62,3.87.29,1.66.62,3.4,1,5.24-.18,1.75-.37,3.53-.58,5.34a1,1,0,0,0,.11.46.51.51,0,0,0,.34.25,1.74,1.74,0,0,1,1.13.4,1.26,1.26,0,0,1,.38,1,2.78,2.78,0,0,1-.25,1.27,1.74,1.74,0,0,1-.69.73c-.38.24-.68.45-.91.63a2.84,2.84,0,0,0-.46.44l.58,2.76-.8,6.32a19.88,19.88,0,0,1-.14,2c-.09.83-.22,1.8-.39,2.89-.3.8-.52,1.47-.67,2a5.91,5.91,0,0,0-.22,1.07c.15.51.28,1,.4,1.6-.18.81-.36,1.61-.56,2.41s-.37,1.58-.55,2.36a5.17,5.17,0,0,1-1.29,2.29,2.65,2.65,0,0,1-1.86.73,1,1,0,0,1-.87-.51,3.25,3.25,0,0,1-.28-1.54,8.17,8.17,0,0,1,.15-1.29,7.93,7.93,0,0,0,.15-1.29,6.72,6.72,0,0,0-.08-.84,5.78,5.78,0,0,1-.09-.93c0-.84.08-2.16.24-4s.25-3.19.25-4.11c-.15-.51-.3-1-.45-1.56a16,16,0,0,0,.18-1.71,9.63,9.63,0,0,0,0-1.63l.68-1.2-.59-4.13-.31-.14a2.47,2.47,0,0,0-.77.2,8.09,8.09,0,0,0-1.27.65,16,16,0,0,1-1.67.38,21.64,21.64,0,0,1-3,.24c-.53.26-1,.5-1.51.71a22.48,22.48,0,0,0-2.58.78c-1,.37-2.24.82-3.61,1.36a18.49,18.49,0,0,1-2.2.91,5.54,5.54,0,0,1-1.67.33,1.14,1.14,0,0,0-.89.4,3.22,3.22,0,0,0-.58,1.16,11,11,0,0,1-.64,2c-.34.83-.8,1.86-1.36,3.11-.12.33-.28.83-.49,1.51s-.44,1.53-.71,2.54c-.18.39-.38.87-.62,1.45s-.51,1.25-.8,2a8.68,8.68,0,0,1-.12,1.31q-.1.78-.33,1.8c-.15.42-.35.94-.6,1.59s-.57,1.34-1,2.11a2.28,2.28,0,0,1-1,1,3.93,3.93,0,0,1-1.74.34,1.44,1.44,0,0,1-1.17-.52,2.42,2.42,0,0,1-.42-1.57,15.86,15.86,0,0,1,.26-2.65,24.84,24.84,0,0,1,.85-3.27c.41-1.57.77-2.85,1.07-3.82a11.36,11.36,0,0,0,.49-2.18q.13-.31.39-1.11c.18-.54.39-1.19.63-2a23.63,23.63,0,0,0,.75-2.53l-.22-.36-1.42.22a.87.87,0,0,1-.71-.4,1.73,1.73,0,0,1-.23-.93,3,3,0,0,1,.09-.69C521.05,151.24,521.14,150.93,521.26,150.58Zm16.16-8.2a13.71,13.71,0,0,0,3-.49,13.78,13.78,0,0,1,3-.49c.41.09.83.16,1.24.22.74-.15,1.47-.32,2.18-.51s1.44-.37,2.18-.52a1.09,1.09,0,0,0,.67-.33.92.92,0,0,0,.22-.65c-.06-.89-.09-1.49-.09-1.82,0-.56,0-1.19.11-1.89s.19-1.41.34-2.16l-.54-2,.18-1.82c-.12-.65-.21-1.26-.29-1.85a5.4,5.4,0,0,1,0-1.44c-.06-.12-.16-.31-.31-.58s-.31-.55-.49-.84c-.3-.51-.6-1-.91-1.45s-.62-.92-.91-1.4a4.4,4.4,0,0,0-1.34-1.24,2.9,2.9,0,0,0-1.47-.4c-.59,0-1.2.47-1.82,1.42a15.79,15.79,0,0,0-1.73,4.31,16.11,16.11,0,0,1-.74,1.47c-.4.74-1,1.71-1.71,2.89A16.16,16.16,0,0,1,537,135a63.19,63.19,0,0,1-2.85,5.9,1.14,1.14,0,0,0-.24.53,3.85,3.85,0,0,0,0,.49.65.65,0,0,0,.15.47.61.61,0,0,0,.47.16c.3,0,.77,0,1.45-.09S537.12,142.38,537.42,142.38Z"/><path class="cls-2" d="M628.16,154.63c.65,1.45,1.21,2.81,1.69,4.08a8.9,8.9,0,0,1-2.35,1.63,21.6,21.6,0,0,1-3.43,1.32c-.36.09-.78.2-1.27.35s-1,.3-1.67.45c-.85.06-1.88.15-3.08.27s-2.62.28-4.25.49a56.22,56.22,0,0,1-6.16,4.27,18.31,18.31,0,0,1-4.52,2l-.66.58a18.31,18.31,0,0,1-3.67,1.09c-1.44.28-3.13.52-5.09.73a2.66,2.66,0,0,1-1.09-.64,12.88,12.88,0,0,1-1.27-1.45c.3-.33.67-.75,1.11-1.27s.94-1.14,1.47-1.86a5.79,5.79,0,0,1,1.58-1.58,6.37,6.37,0,0,1,2.33-.87c1-.21,2.06-.51,3.25-.89a8.93,8.93,0,0,1,1.09-.73c.43-.26.91-.56,1.44-.91a11.62,11.62,0,0,0,2.14-1.38c.74-.6,1.56-1.32,2.44-2.18l2.85-2.78q1.07-1.05,1.29-1.32a9.67,9.67,0,0,1,.76-1.13,5.15,5.15,0,0,1,1-.95q.63-1.07,1.56-2.7t2.22-3.75a6.29,6.29,0,0,0,.56-.65c.22-.28.48-.58.78-.91a6.67,6.67,0,0,0,1.29-3.11,28,28,0,0,0,.4-5.07,10,10,0,0,0-1-4.27,20.62,20.62,0,0,0-3.22-4.71,30.21,30.21,0,0,0-3.86-3.67,22.86,22.86,0,0,0-4.14-2.65c-1.06-.53-2.06-1.06-3-1.58l-2.56-1.4c-.41,1.49-.94,3.53-1.58,6.14s-1.35,5.78-2.15,9.52q-1.34,6.32-2,10.18a37.38,37.38,0,0,0-.67,5.2c-.18.74-.32,1.49-.44,2.22l-1.78,8.77a33.17,33.17,0,0,1-2.67,4.49c-.74,1-1.32,1.46-1.73,1.46-.21,0-.41-.16-.59-.51a7.59,7.59,0,0,1-.53-1.62l.53-2.54a3.54,3.54,0,0,1-.26-.75c.17-1.93.34-3.88.49-5.85s.31-3.94.49-5.9q.23-3.28.67-6.18c.3-1.93.62-3.71,1-5.34l-.54-2.27a13.13,13.13,0,0,0,.56-2.09c.16-.83.31-1.78.42-2.85.12-1.36.22-2.47.31-3.31a9.43,9.43,0,0,1,.31-1.76c.12-.38.25-.87.38-1.47s.29-1.3.47-2.13a6.5,6.5,0,0,1,1.56-1.89,12,12,0,0,0,1.82-2.11,4.41,4.41,0,0,0,1.38-.38.73.73,0,0,0,.44-.65c0-.21-.17-.38-.51-.53a5.6,5.6,0,0,0-1.53-.35,7.2,7.2,0,0,1-2.45-.5l-3.64-1.77a7.51,7.51,0,0,1-1.77-1.07,1.51,1.51,0,0,1-.61-1.12q.27-.89.45-1.77c-.21-.6-.39-1.08-.52-1.47a3.1,3.1,0,0,1-.2-.89.93.93,0,0,1,.2-.63.74.74,0,0,1,.56-.22l2.18.4c.29-.09.59-.18.88-.29s.59-.21.89-.33a10.2,10.2,0,0,1,1.92.16,6.59,6.59,0,0,1,1.28.33c.42.21.85.43,1.29.67s.88.44,1.29.62c.36-.06.83-.14,1.43-.22a1.53,1.53,0,0,1,.49.08,6,6,0,0,0,1.29.65,10.84,10.84,0,0,0,1.73.51c.71.12,1.32.25,1.82.38a6.4,6.4,0,0,1,1.2.43q4.73,2.44,8.25,4.6a41.68,41.68,0,0,1,5.85,4.2,21.39,21.39,0,0,1,5.38,6.77A17.08,17.08,0,0,1,627.8,132a28.47,28.47,0,0,1-3.68,13.21,68.67,68.67,0,0,1-11,14.69,16.45,16.45,0,0,1,1.65-.58c.68-.2,1.46-.46,2.35-.76,1.87-.41,3.79-.86,5.78-1.33a19.67,19.67,0,0,0,3.16-1.17A7,7,0,0,0,628.16,154.63Z"/><path class="cls-2" d="M633.94,158.05a37.83,37.83,0,0,1,.2-4.2,18.07,18.07,0,0,1,.47-2.69c-.06-.51-.13-1-.22-1.56s.07-1.66.22-3.11.37-3.35.66-5.7.5-4,.7-5.22a20.22,20.22,0,0,1,.42-2.25c-.06-.5-.13-1-.2-1.64a17.61,17.61,0,0,0-.38-2l-1-.71-.22-.53q.09-1.24.15-2.52a22.63,22.63,0,0,1,.29-2.55,12.79,12.79,0,0,1,.43-2.8,21.8,21.8,0,0,1,.68-2.1,3.34,3.34,0,0,0,.29-.62,6.1,6.1,0,0,1,.43-.84c.26-1.07.53-2.14.8-3.2s.55-2.11.84-3.12a6,6,0,0,1,1.92-2.44,6.54,6.54,0,0,1,3-1.2,17.22,17.22,0,0,1,2.13-1,4.23,4.23,0,0,1,1.42-.34,1.15,1.15,0,0,1,1,.49,2.31,2.31,0,0,1,.36,1.38c0,.24-.12,1.06-.36,2.47s-.6,3.36-1.11,5.85c-.09.83-.24,1.81-.44,3s-.49,2.5-.85,4.07q-.66,2.63-1.31,5.76t-1.18,6.92c-.15,1.06-.31,2.12-.49,3.15s-.34,2.09-.49,3.16c-.17,1.22-.33,2.37-.46,3.45a22.71,22.71,0,0,0-.2,2.91,6.81,6.81,0,0,0,.06.93,5.12,5.12,0,0,1,.07.85,4.34,4.34,0,0,1,0,1.29c-.08.53-.16,1.17-.25,1.91s-.22,1.36-.31,1.93a9.22,9.22,0,0,0-.13,1.31c0,1.52,0,2.74.11,3.67a10.49,10.49,0,0,0,.24,1.85q.32,1.2.63,2.58c0,.5-.67,1.25-2,2.24a6.08,6.08,0,0,1-2.88,1.49,1.4,1.4,0,0,1-1-.37,4.8,4.8,0,0,1-.87-1.14,11.36,11.36,0,0,1-.49-1.29,3.89,3.89,0,0,1-.17-1.07,3.66,3.66,0,0,1,.17-.84,3.16,3.16,0,0,0,.18-.84,11.81,11.81,0,0,0-.8-2.23c-.06.3-.09.24-.09-.17Z"/><path class="cls-3" d="M400.8,264l1.68,4.09a14.77,14.77,0,0,1-1.17,1c-.46.34-1,.7-1.63,1.09-.62.21-1.37.5-2.24.89l-3,1.33a20.36,20.36,0,0,1-2.11,1.2,3.2,3.2,0,0,1-1.13.4,8.76,8.76,0,0,0-2.11.49c-1,.33-2.37.82-4,1.47-.89.32-1.83.66-2.82,1s-2,.64-3.09.91l-2.76-.58-1.69.76-1.71,0c-.58,0-1.13-.05-1.67-.11a5,5,0,0,1-1.93-.36,1,1,0,0,1-.65-.89l.27-1.69-.27-.31a3.51,3.51,0,0,1-2-.4c-.34-.27-.51-.89-.51-1.87q0-.66.06-2.22t.21-4a3.07,3.07,0,0,1,.29-.93,3.66,3.66,0,0,0,.29-1,2.3,2.3,0,0,1-.27-.71,3,3,0,0,1,0-.49c.06-1.15.19-2.57.38-4.26s.44-3.7.73-6a41.38,41.38,0,0,0,.89-4.71c-.06-1.31-.12-2.64-.18-4q1.65-7.38,3.38-14.86a8.06,8.06,0,0,1,1-2.53,15,15,0,0,1,1.76-2.31,2.76,2.76,0,0,0,.58-.49c.15-.27.34-.6.58-1s.52-.86.84-1.36c.18-.12.47-.29.87-.53l1.62-1c.3-.24.64-.52,1-.85s.83-.71,1.34-1.15a30.78,30.78,0,0,0,3.13-2.16,7.28,7.28,0,0,1,3.63-1.4c.68,0,1.36-.06,2.05-.11s1.33-.09,1.95-.15a12,12,0,0,1,1.56-.23l.77-.18a2.43,2.43,0,0,1,.61-.09,6.64,6.64,0,0,1,.73.07l1.27.2c.41,0,.77.05,1.06.05a7.62,7.62,0,0,0,.85-.05,5.23,5.23,0,0,1,2.62,1.56,3.66,3.66,0,0,1,.85,2.44,12.94,12.94,0,0,1-.6,4.56,2,2,0,0,1-1.89,1.49,3.74,3.74,0,0,1-2.23-1c-.83-.67-3.06-1-6.71-1l-4.49.89a1.55,1.55,0,0,1-.52.53,2.84,2.84,0,0,1-.51.27l-1.55-.58a4.14,4.14,0,0,0-1.6,1.47,19.76,19.76,0,0,0-1.87,3.29,3.84,3.84,0,0,0-.33,1.11,8.92,8.92,0,0,0-.12,1.56q-.79,3.19-1.59,6.18-.76,3.19-1.23,4.85c-.31,1.09-.5,1.76-.55,2a8.08,8.08,0,0,0-.22.84,3.73,3.73,0,0,0-.1.8,1.48,1.48,0,0,0,.23.89.74.74,0,0,0,.66.31c.27,0,.92-.49,1.94-1.46a6.42,6.42,0,0,1,2.29-1.65c.62-.18,1.25-.37,1.89-.58a19,19,0,0,0,2-.76,18.88,18.88,0,0,1,2.11-.35c1.14-.15,2.74-.32,4.78-.53l1.25.35,2.35-.44,1.25.58a5.35,5.35,0,0,1,.82,1.09,10.74,10.74,0,0,1,.69,1.4,10.76,10.76,0,0,1-.58,4,1.87,1.87,0,0,1-1.73,1.38l-2.45-1-6,.6c-2,.2-4,.38-6,.56a12.57,12.57,0,0,0-5.74,2.45,6.18,6.18,0,0,0-2.22,4.44,16.2,16.2,0,0,1-.32,1.78c-.17.8-.38,1.8-.62,3l.31,1.34c-.26,1.27-.48,2.47-.62,3.6a22.94,22.94,0,0,0-.22,3,1.16,1.16,0,0,0,.13.64c.09.14.19.17.31.11l3.43-.26a13.4,13.4,0,0,1,1.82,0l2.36.17,2.8-.22a15,15,0,0,0,1.93-.71,7.15,7.15,0,0,1,2.69-.62,12.83,12.83,0,0,0,2.6-.27,17.42,17.42,0,0,0,2.51-.71c.81-.3,1.6-.6,2.38-.91l2.38-.92a8.61,8.61,0,0,0,1.18-.48C399.57,264.65,400.14,264.34,400.8,264Z"/><path class="cls-3" d="M409.07,233.14c-.09-.6-.2-1.22-.32-1.87,0,.26.05.06.14-.62s.21-1.86.35-3.52a3.73,3.73,0,0,0,.51-.87c.11-.24.2-.48.29-.68a8.94,8.94,0,0,1-.6-.83,1.19,1.19,0,0,1-.2-.55c.24-1.81.46-3.53.67-5.16a2.71,2.71,0,0,1,.78-1.51,13.55,13.55,0,0,1,2-1.83,15.5,15.5,0,0,1,2-1.42,13.51,13.51,0,0,1,1.87-.93,3.86,3.86,0,0,0,1.42-.67.63.63,0,0,1,.49-.27,1.19,1.19,0,0,1,1.09.71,4.76,4.76,0,0,1,.38,2.14,8.38,8.38,0,0,1-.38,2.09,8.27,8.27,0,0,0-.38,2c0,.18,0,.87.07,2s.11,2.89.2,5.11a24.1,24.1,0,0,0,.69,5.12,58.66,58.66,0,0,0,1.67,5.65,18.79,18.79,0,0,0,3,5.71,4.6,4.6,0,0,0,3.52,1.89c1,0,2.34-.65,4-2a45.15,45.15,0,0,0,5.88-5.87c1.71-2,3.25-3.89,4.6-5.64a42.09,42.09,0,0,0,3.27-4.81A17.71,17.71,0,0,1,448.8,223a21.06,21.06,0,0,1,3.55-2.84l1-.58a1.4,1.4,0,0,1,.62-.23c.52,0,.93.41,1.21,1.2a11.53,11.53,0,0,1,.41,3.56c-.17,1.46-.32,2.89-.44,4.32q-.4,3.33-1.18,6.93c-.52,2.41-1.19,4.89-2,7.47-.41,1.31-.77,2.45-1.07,3.43a21,21,0,0,0-.61,2.49c-.06.38-.15.87-.25,1.44s-.22,1.26-.33,2c-.3.75-.63,1.49-1,2.23a9.71,9.71,0,0,0-.73,2.14c-.2.82-.36,1.79-.51,2.88,0,.21,0,.48-.05.81s-.06.66-.09,1c-.68,3-1.38,6-2.08,8.8a5,5,0,0,1-.4,1,4.24,4.24,0,0,0-1.31.76,9.5,9.5,0,0,0-1.53,1.6,11.16,11.16,0,0,1-1.34,1.31,1.54,1.54,0,0,1-.79.43.81.81,0,0,1-.59-.23,1.08,1.08,0,0,1-.22-.75,2.35,2.35,0,0,1,.14-.58,20.62,20.62,0,0,0,1.08-4.36c.32-1.89.61-4.24.87-7,0-.6.27-2.2.72-4.81s1.09-6.22,1.95-10.85c.12-.74.28-1.65.47-2.73s.44-2.32.73-3.71c.21-.72.38-1.33.51-1.85a5,5,0,0,0,.21-1.13,1.11,1.11,0,0,0-.16-.65.58.58,0,0,0-.47-.2c-.18,0-.5.23-1,.69a20.68,20.68,0,0,0-1.78,2.07c-.41.5-.84,1-1.27,1.6s-.88,1.11-1.36,1.65c-.8.82-1.54,1.61-2.22,2.35L434.25,248l-1.09.67c-.44.26-.94.58-1.54.93a6.74,6.74,0,0,1-2.69,2.29,7.47,7.47,0,0,1-3.41,1,6.27,6.27,0,0,1-3.58-1.18,12.7,12.7,0,0,1-3.31-3.62c-.48-.8-.94-1.61-1.4-2.4s-1-1.61-1.5-2.41l-.22,0a18,18,0,0,0-.82,3.6q-.6,3.33-1.54,9.78-1,6.63-1.55,10.41a44.89,44.89,0,0,0-.53,4.89,5.5,5.5,0,0,1-.56,2.34,1.87,1.87,0,0,1-1.44,1,10.38,10.38,0,0,0-1.38.25c-.6.13-1.31.3-2.14.51a1.29,1.29,0,0,1-.4-.16.35.35,0,0,1-.18-.33l.27-1.65-.44-1.69c.17-.92.35-1.81.53-2.66.12-1.79.22-3.46.31-5a13.15,13.15,0,0,1,.33-1.65,7.42,7.42,0,0,0,.29-1.73,4.42,4.42,0,0,0-.13-.91,4.51,4.51,0,0,1-.13-.91,48.07,48.07,0,0,1,.78-7.25,50.7,50.7,0,0,0,.77-7.29c-.09-.69-.19-1.37-.31-2,.15-1.07.39-2.4.72-4S408.65,235.27,409.07,233.14Z"/><path class="cls-3" d="M460.65,267.33a37.83,37.83,0,0,1,.2-4.2,18.32,18.32,0,0,1,.47-2.69c-.06-.5-.14-1-.22-1.56s.07-1.66.22-3.11.37-3.35.66-5.69.5-4,.7-5.23.33-2,.41-2.24c-.06-.51-.12-1.06-.19-1.65a17.46,17.46,0,0,0-.38-2l-1-.72-.22-.53c.06-.83.11-1.67.15-2.51a22.54,22.54,0,0,1,.29-2.56,13.46,13.46,0,0,1,.42-2.8c.23-.8.46-1.5.69-2.09a4.11,4.11,0,0,0,.29-.62,6.18,6.18,0,0,1,.43-.85c.26-1.07.53-2.13.79-3.2s.56-2.1.85-3.11a6,6,0,0,1,1.91-2.45,6.63,6.63,0,0,1,3-1.2,18,18,0,0,1,2.14-1,4.37,4.37,0,0,1,1.42-.33,1.12,1.12,0,0,1,1,.49,2.26,2.26,0,0,1,.36,1.37c0,.24-.12,1.06-.36,2.47s-.61,3.36-1.11,5.85c-.09.83-.24,1.82-.44,3s-.49,2.5-.85,4.06c-.44,1.76-.88,3.67-1.31,5.76s-.83,4.4-1.18,6.92c-.15,1.07-.31,2.12-.49,3.16s-.34,2.09-.49,3.15c-.17,1.22-.33,2.37-.46,3.45a22.71,22.71,0,0,0-.2,2.91,7.07,7.07,0,0,0,.06.94,4.92,4.92,0,0,1,.07.84,4.34,4.34,0,0,1,0,1.29c-.08.54-.16,1.17-.25,1.91s-.22,1.36-.31,1.94a9.09,9.09,0,0,0-.13,1.31c0,1.51,0,2.73.11,3.67a10.48,10.48,0,0,0,.24,1.84q.31,1.2.63,2.58,0,.76-2,2.25a6.23,6.23,0,0,1-2.88,1.49,1.41,1.41,0,0,1-1-.38,4.8,4.8,0,0,1-.87-1.14,11.36,11.36,0,0,1-.49-1.29,3.52,3.52,0,0,1-.18-1.06,3.16,3.16,0,0,1,.18-.84,3.29,3.29,0,0,0,.18-.85,12.07,12.07,0,0,0-.8-2.23c-.06.3-.09.24-.09-.17Z"/><path class="cls-3" d="M502.45,264a43.37,43.37,0,0,1,1.78,4.09,17.24,17.24,0,0,0-1.07,1.69c-.33.59-.68,1.2-1.07,1.83a5,5,0,0,1-1.38,1.38,8.87,8.87,0,0,1-1.95,1c-1.07.42-2.07.82-3,1.23s-1.81.79-2.58,1.17a9,9,0,0,1-2.78.82c-1,.14-1.95.27-2.87.38a9.52,9.52,0,0,1-1.94.34c-.63,0-1.22.07-1.75.07a8.17,8.17,0,0,1-1.11-.07,2.06,2.06,0,0,1-.76-.25c-.27-.17-.53-.35-.78-.53s-.5-.34-.73-.49l-1.16-.67c-.35-.21-.61-.8-.78-1.78a22.87,22.87,0,0,1,.87-10.5,28.9,28.9,0,0,0,1.11-5.69,5.79,5.79,0,0,0-.09-.87,5.8,5.8,0,0,1-.08-.92,39.66,39.66,0,0,1,.86-5.67,37.9,37.9,0,0,0,.87-6.16,1.35,1.35,0,0,0-.64-1.23,1.19,1.19,0,0,1-.65-1.13,18.14,18.14,0,0,1,.18-2.4,21.5,21.5,0,0,1,.62-2.93c.24-.86.46-1.72.67-2.6s.41-1.73.62-2.55c.2-1,.42-2,.64-3s.41-2,.56-2.93a20.5,20.5,0,0,1,.85-2.4c.38-.95.84-2,1.37-3.25.27-.59.51-1.15.72-1.66s.42-1.07.66-1.67a3.84,3.84,0,0,1,1-1.26,7.3,7.3,0,0,1,1.64-1,13.42,13.42,0,0,1,1.42-.46,4,4,0,0,1,.85-.16,2,2,0,0,1,1.76.82,4.66,4.66,0,0,1,.55,2.52,11.37,11.37,0,0,1-.07,1.22,7.84,7.84,0,0,1-.33,1.58c-.12.62-.23,1.16-.33,1.6s-.19.8-.25,1.07c0,.71-.07,1.36-.13,2s-.14,1.15-.22,1.65c-.18.35-.42.79-.72,1.29-.2,1.39-.38,2.55-.51,3.49a17,17,0,0,0-.2,2,15.09,15.09,0,0,1-.95,4.69,14.68,14.68,0,0,0-1,4.29,8.46,8.46,0,0,1-.22,1.63c-.15.66-.37,1.46-.67,2.37-.33,1.25-.58,2.21-.78,2.89s-.31,1.1-.37,1.25l-.21,1.56c-.07.59-.18,1.29-.33,2.08-.68,3.24-1.19,5.91-1.53,8a33.06,33.06,0,0,0-.51,4.78,6.44,6.44,0,0,0,.31,2.27c.21.53.51.8.93.8a27,27,0,0,0,5.67-.62,42.39,42.39,0,0,0,6-1.82,2.7,2.7,0,0,0,.69-.18l.69-.27a5.52,5.52,0,0,0,.8-1.16,7,7,0,0,0,1-.73A5.05,5.05,0,0,0,502.45,264Z"/><path class="cls-3" d="M508.45,267.33a37.83,37.83,0,0,1,.2-4.2,18.32,18.32,0,0,1,.47-2.69c-.06-.5-.14-1-.23-1.56s.08-1.66.23-3.11.37-3.35.66-5.69.5-4,.7-5.23.33-2,.41-2.24c-.06-.51-.12-1.06-.19-1.65a17.46,17.46,0,0,0-.38-2l-1-.72-.22-.53c.06-.83.11-1.67.15-2.51a22.54,22.54,0,0,1,.29-2.56,13.46,13.46,0,0,1,.42-2.8c.23-.8.46-1.5.69-2.09a4.11,4.11,0,0,0,.29-.62,6.18,6.18,0,0,1,.43-.85c.26-1.07.53-2.13.79-3.2s.56-2.1.85-3.11a6,6,0,0,1,1.91-2.45,6.63,6.63,0,0,1,3-1.2,18,18,0,0,1,2.14-1,4.37,4.37,0,0,1,1.42-.33,1.12,1.12,0,0,1,1,.49,2.26,2.26,0,0,1,.36,1.37c0,.24-.12,1.06-.36,2.47s-.61,3.36-1.11,5.85c-.09.83-.24,1.82-.44,3s-.49,2.5-.85,4.06c-.44,1.76-.88,3.67-1.31,5.76s-.83,4.4-1.18,6.92c-.15,1.07-.31,2.12-.49,3.16s-.34,2.09-.49,3.15c-.17,1.22-.33,2.37-.46,3.45a22.71,22.71,0,0,0-.2,2.91,7.07,7.07,0,0,0,.06.94,4.92,4.92,0,0,1,.07.84,4.34,4.34,0,0,1,0,1.29c-.08.54-.16,1.17-.25,1.91s-.22,1.36-.31,1.94a9.09,9.09,0,0,0-.13,1.31c0,1.51,0,2.73.11,3.67a10.48,10.48,0,0,0,.24,1.84q.32,1.2.63,2.58,0,.76-2,2.25a6.23,6.23,0,0,1-2.88,1.49,1.41,1.41,0,0,1-1-.38,4.8,4.8,0,0,1-.87-1.14,11.36,11.36,0,0,1-.49-1.29,3.52,3.52,0,0,1-.18-1.06,3.16,3.16,0,0,1,.18-.84,3.29,3.29,0,0,0,.18-.85,12.07,12.07,0,0,0-.8-2.23c-.06.3-.09.24-.09-.17Z"/><path class="cls-3" d="M525.21,247.85a3.83,3.83,0,0,1,.34-1.38,11.05,11.05,0,0,1,1-1.82c.62-.89,1.09-1.58,1.4-2.09a4.29,4.29,0,0,0,.51-1l.6-1.29c.25-.53.54-1.14.87-1.82a6.88,6.88,0,0,0,1-2.11c.39-1.08.83-2.51,1.33-4.29.24-.48.5-1,.76-1.71s.59-1.47,1-2.38a14.66,14.66,0,0,1,.67-2.4c.32-.92.74-1.94,1.24-3.07s1.28-2.12,2-3.16a6,6,0,0,1,2.93-2.31,4.94,4.94,0,0,1,1.16,1,1.5,1.5,0,0,1,.4.94,6.72,6.72,0,0,1-1,3,6.83,6.83,0,0,0-1,2.51.86.86,0,0,0,.4.67,7.73,7.73,0,0,0,1.29-1.07c.62-.59,1.44-1.39,2.45-2.4a24.3,24.3,0,0,1,2.24-1.89,4.87,4.87,0,0,1,1.89-.91,8.85,8.85,0,0,1,1.47-.4,15.55,15.55,0,0,0,2-.58,5.34,5.34,0,0,0,.93-.63,3.86,3.86,0,0,1,1-.53l.67.13a5.33,5.33,0,0,0,2.22.83,14.45,14.45,0,0,0,2.31.42,5.63,5.63,0,0,1,.94.71,12.21,12.21,0,0,0,1.37,1.07,11.7,11.7,0,0,1,3.32,3.13,23.66,23.66,0,0,1,2.78,5.14,35.89,35.89,0,0,1,1.75,5.33,21.36,21.36,0,0,1,.6,4.9,40.07,40.07,0,0,1-1.86,12.89,21.52,21.52,0,0,1-5.65,9l-.87.86c-.34.35-.76.75-1.27,1.23v.48a2.26,2.26,0,0,1-.51,1,10.63,10.63,0,0,1-1.17,1.18L555.32,268c-1.13,1-2.28,2-3.47,3a26.08,26.08,0,0,1-4.22,3,15.69,15.69,0,0,1-3.87,1.56,5.57,5.57,0,0,1-2,1.09,9.57,9.57,0,0,1-2.87.37,20.21,20.21,0,0,1-4-.33,4.65,4.65,0,0,1-2.22-1,11.24,11.24,0,0,0-.93-.8,15.83,15.83,0,0,1-1.25-1A5.26,5.26,0,0,1,529,271.8a21,21,0,0,1-1.2-4c-.24-1.22-.43-2.4-.56-3.54a28.22,28.22,0,0,1-.2-3.17,7.69,7.69,0,0,1,.22-1.47,5.66,5.66,0,0,0,.18-1.56,15.39,15.39,0,0,0-.09-1.78,10.89,10.89,0,0,1,.49-2.53,10.7,10.7,0,0,0,.49-2.76,1.6,1.6,0,0,0-.26-.67,6.53,6.53,0,0,0-1,1.47,1.84,1.84,0,0,1-.62.67,1.26,1.26,0,0,1-.67.22.92.92,0,0,1-.78-.4,2.09,2.09,0,0,1-.28-1.2,8.09,8.09,0,0,1,.24-1.6A8.08,8.08,0,0,0,525.21,247.85Zm26.68-21.74a9.82,9.82,0,0,0-2.18.26,15.81,15.81,0,0,0-2.26.76L543.14,229a4.81,4.81,0,0,0-1,.71,10.54,10.54,0,0,0-1.23,1.34l-2,2.53a11,11,0,0,0-1.74,4.23,67.36,67.36,0,0,0-1.33,8q-.45,3.78-.62,7.05t-.18,6c0,3.76.57,6.57,1.73,8.42a5.77,5.77,0,0,0,5.25,2.78,9.68,9.68,0,0,0,3.69-.86,23,23,0,0,0,4.45-2.65,34.56,34.56,0,0,0,3.6-3,18.64,18.64,0,0,0,2.58-3.14,22.15,22.15,0,0,0,1.4-2.62c.64-1.34,1.52-3.16,2.64-5.48a29.83,29.83,0,0,0,1.74-5.13,23.25,23.25,0,0,0,.62-5.36c-.18-.89-.37-1.76-.58-2.62l.31-1.92c-.29-.35-.54-.68-.75-1s-.17-.43-.23-.58a16.91,16.91,0,0,0-3.73-7.23A7.82,7.82,0,0,0,551.89,226.11Z"/></svg>
