<svg id="Layer_1" data-name="Layer 1" xmlns="http://www.w3.org/2000/svg" xmlns:xlink="http://www.w3.org/1999/xlink" width="105.4mm" height="108.78mm" viewBox="0 0 298.77 308.36"><defs><style>.cls-1,.cls-7{fill:none;}.cls-2{fill:#1d1d1b;}.cls-3{fill:#605a5b;}.cls-11,.cls-3,.cls-4,.cls-5,.cls-6,.cls-7{stroke:#1d1d1b;stroke-miterlimit:10;}.cls-3,.cls-4,.cls-5,.cls-6,.cls-7{stroke-width:4px;}.cls-4{fill:url(#USGS_21_Intricate_Surface);}.cls-5{fill:#928e90;}.cls-6{fill:#944318;}.cls-8{fill:#605b5d;opacity:0.5;}.cls-9{fill:#605a5c;}.cls-10{fill:#a5791f;}.cls-11{fill:#d87d38;stroke-width:3px;}.cls-12{fill:#ce3132;}.cls-13{fill:#00904a;}.cls-14{fill:#e30613;}.cls-15{fill:#7a7f7a;}.cls-16{fill:#ed6f1b;}</style><pattern id="USGS_21_Intricate_Surface" data-name="USGS 21 Intricate Surface" width="54" height="54" patternTransform="translate(1.36)" patternUnits="userSpaceOnUse" viewBox="0 0 54 54"><rect class="cls-1" width="54" height="54"/><path class="cls-2" d="M22.58,55.48c-.76.5-1.32,4.69-2.07,5.25-.29.22-.75.69-.75.94,0,.5-.27.44-.27.94,0,1-.74,2.31-2.11,2-.37-.08-.67-1,1.37-2.15.22-.13,0-.91.14-1.34,2-5.28,3.87-9.6,4.44-8.28Z"/><path class="cls-2" d="M28.33,56.49a3.85,3.85,0,0,1-.44-1.24l-3.28.67c-.9-1,1.11-1.39,2.49-2.05a24,24,0,0,1,2.7-1.42C29.62,53.55,28.65,55.17,28.33,56.49Z"/><path class="cls-2" d="M48.75,59.06A1,1,0,0,1,48,60.47c-.87.13-2,.41-2,.85a3.32,3.32,0,0,1-2.47,3,14.9,14.9,0,0,1,5.17-5.37c.24-.17-.05-.94.15-1.34.65-1.33,2.65.12,2.84-2.29,0-.24-.41-.5-.66-.75,2.11.6,1.86-2.13,3.75-2.25v1.5a3.65,3.65,0,0,0-2.26.74C50.18,55.69,52.58,58.6,48.75,59.06Z"/><path class="cls-2" d="M3.94,60.56c-.35-2,2.65-5.84,3.56-7.5a1.83,1.83,0,0,1,.25,1.69c-.38,2-2.63,3.29-2.61,5.85-.57.94-.5,1.56-2.14,1.46Z"/><path class="cls-2" d="M11.44,55.31a3.35,3.35,0,0,0-.75-2.25,1,1,0,0,1,1.39.76A3.51,3.51,0,0,1,11.44,55.31Z"/><path class="cls-2" d="M2.25,55.12C.46,54.89,2,53.54,1.5,52.88,3.69,53,.93,54.73,2.25,55.12Z"/><path class="cls-2" d="M13.6,56.2c1.65-1.24,2.27-4.91,4.15-5.7-1.52,1.15-1.67,4.89-2.88,6.19-2.32,2.49-5.58,3.82-7.29,6.92-.62,1.12.7,2.71-.83,3.7-.26-2.43-.23-5,1.66-6.55S11.61,57.69,13.6,56.2Z"/><path class="cls-2" d="M36.5,55.75c-.44.49-1.18-.08-1.32-.68-.23-1-1.2-2.6-.08-3a3.77,3.77,0,0,0,3,.75C35.52,52.8,37.22,55,36.5,55.75Z"/><path class="cls-2" d="M44,56.45c.16.3.75-.1,1-.45-1.06-.61.11-2.17-1.2-2.39-.48-.09-1,.48-1.72.38C42.65,55.09,43.36,55.32,44,56.45Z"/><path class="cls-2" d="M-5.25,59.06A1,1,0,0,1-6,60.47c-.87.13-2,.41-2,.85a3.32,3.32,0,0,1-2.47,3,14.9,14.9,0,0,1,5.17-5.37c.24-.17,0-.94.15-1.34.65-1.33,2.65.12,2.84-2.29,0-.24-.41-.5-.66-.75,2.11.6,1.86-2.13,3.75-2.25v1.5a3.65,3.65,0,0,0-2.26.74C-3.82,55.69-1.42,58.6-5.25,59.06Z"/><path class="cls-2" d="M53.27,43.18c.83-.31,1.72.69,2.13.49,2.15-1,2-3.56,4.68-1.39,0,0,.61-.43.57-.64-.12-.76-.91-1.41-.6-2.25.21-.58.8-.7,1.41-.9,1.86-.62-.47-2.49,2.19-3.82.3-.15.33-1.41,0-2-.79-1.26-2.34-.79-3.63-.82a3.59,3.59,0,0,0,3-1.5l-.75,1.5,3,1.5c-.5.25-1.23.4-1.38.79-.35.87.15,2.08-.26,2.89-.1.2-1-.1-1.26.15-1.22,1.43-.6,4-1.83,4.85-2,1.41-6.05.95-7,4.14-.17.56,1.14,1.27,2,1.32s1.85-.67,2.24-2.14a2,2,0,0,0,.81,2.09c1.47.57,1.36-2.45,2.9-2a1.39,1.39,0,0,1,.66,1.33c-.12.38-.87.71-1.37.71-.25,0-.59-.62-.71-.56-1.53.66-3.58.47-4.47,2.18a3.36,3.36,0,0,0-.07,1.46c-.82,0-2.15.29-2.06-.73s1-2,.46-3c-.21-.41-.9-.55-1.4-.81Z"/><path class="cls-2" d="M54.75,34.12c-1.59.18-.68-.9-.75-1.5Q54.38,33.39,54.75,34.12Z"/><path class="cls-2" d="M54.38,9.38c-.11,2.44-.18,1.64-2.63,2.43.5-.25,2-.94,2.1-1.32.24-.78-.08-1.13.32-1.83-.18-.75-1.48-.75-.79-1.78,1-1.53.21-3.75,2.13-4.54.43-.18.24.47.74.47C56.25,4.88,54.47,7.16,54.38,9.38Z"/><path class="cls-2" d="M52.5,37.31c.52-1.46,1.83-1.34,3-1.5C54.77,36.85,53.6,37,52.5,37.31Z"/><path class="cls-2" d="M5.62,29.06a2.28,2.28,0,0,1-.74,0,5,5,0,0,1,1.5-2.25c.26.5.75,1.08.63,1.46S6.16,28.89,5.62,29.06Z"/><path class="cls-2" d="M22.58,1.48c-.76.5-1.32,4.69-2.07,5.25-.29.22-.75.69-.75.94,0,.5-.27.44-.27.94,0,1-.74,2.31-2.11,2-.37-.07-.67-1,1.37-2.14.22-.13,0-.91.14-1.34,2-5.28,3.87-9.6,4.44-8.28Z"/><path class="cls-2" d="M14.26,10c-.71-.25-1.69-1.08-1.59-1.33.92-2.32,1.82-3.3,2.75-3.34s-1.21,1.44-1.7,2.47,1.94,2.48,1.52,3.09S14.78,10.57,14.26,10Z"/><path class="cls-2" d="M12,11.06c-.58,1.92-.39,2.11-3,3,.76-.23.56.06.75-2.25C9.77,11.52,11.5,11.31,12,11.06Z"/><path class="cls-2" d="M9.73,20.06c-.2.52-.45,1.32-.74,1.34-2,.19-2.41,1.72-3,3.16,1.3.36,2.23,1.67,3.75,1.5-.7.41-1.49,1.14-2.17.64-.25-.18,0-1.18-.13-1.24-2.87-1-2.15-3.13-.58-4.51.16-.15,1,.63,1.3.47,1.26-.71-.48-4.54.83-3.61.65.7,1.68,1.46,2.83-.12.5-.68.17-1.88.17-2.88.38-.75,2.06-.32,2.1.76C14.19,18.15,10.64,17.76,9.73,20.06Z"/><path class="cls-2" d="M18.74,17.8c-.23.29-.49.68-.74.68s-.5-.42-.75-.67c.5-.25,1.32-.47,1.34-.76.12-1.46-.23-3.15-2.09-3.74C19.54,12.4,20.38,15.74,18.74,17.8Z"/><path class="cls-2" d="M21.92,19.33c.31-3.9-.54-6,3.58-4.52.94,1.31-1.82.21-2.12.82-.15.31,1.68,1,1.56,1.43s-2.11.39-2.35.81c-.43.75.25,1.5.66,2.19C22.75,19.81,21.91,19.54,21.92,19.33Z"/><path class="cls-2" d="M26.21,20c-.13.05-.46-.4-.71-.65.8-.42,1.3-2.11,2.08-1.33S27,20.25,26.21,20Z"/><path class="cls-2" d="M15.5,26.75c-.44.49-1.18-.08-1.32-.68-.23-1-1.2-2.6-.08-3a3.77,3.77,0,0,0,3,.75C14.52,23.8,16.22,26,15.5,26.75Z"/><path class="cls-2" d="M31,16.12c2.79-.37,3-2.78,4.58-4.22.27-.26,1,.08,1.35-.17a2.84,2.84,0,0,0,.82-2.92C39,10.47,40.38,8.19,41.3,9c1.68,1.53,1.51,4,4,5-.39,1.91-2.09,2.94-3,4.5.81-2.62,2.84-5.43-.75-6.75.25-.25.67-.5.67-.75a1.69,1.69,0,0,0-.72-1.38,2.24,2.24,0,0,0-2.84.69c-1,1.78-1.51,1.92-2.89,3.18-.67.62,0,2.41-1,3.51-.25-.25-.63-.83-.73-.65-1,1.78-2.27,1.59-2.64.47Z"/><path class="cls-2" d="M30.43,12.32h0c-.19-.15-1.25.41-1.27.69-.08,1.62-.38,3.27-2.41,3,2.41-2,3.1-4.92,4.41-7.55.44-.89-2.66-3.14-1.41-3.89L32,5.5c.65-.7,1.42-1.16,3,0-1.07,0-2.33-.2-2.89.81C31.18,8,32,8.89,31.84,10.74c0,.29-1.07.42-1.22.8A2.68,2.68,0,0,0,30.43,12.32Z"/><path class="cls-2" d="M28.33,2.49a3.85,3.85,0,0,1-.44-1.24l-3.28.67c-.9-1,1.11-1.39,2.49-2a24,24,0,0,1,2.7-1.42C29.62-.45,28.65,1.17,28.33,2.49Z"/><path class="cls-2" d="M38.25,41.06c.48-1.06,1.43-.69,2.25-.75C40,41.25,39.14,41.23,38.25,41.06Z"/><path class="cls-2" d="M47.57,2.07c-.46,4.31-.57,0-.82,0,.71-.28,1.75-.24,1.5-1.5A4.83,4.83,0,0,0,47.57,2.07Z"/><path class="cls-2" d="M48.75,5.06A1,1,0,0,1,48,6.47c-.87.13-2,.41-2,.85a3.32,3.32,0,0,1-2.47,3,14.9,14.9,0,0,1,5.17-5.37c.24-.17-.05-.94.15-1.34.65-1.33,2.65.12,2.84-2.29,0-.24-.41-.5-.66-.75,2.11.6,1.86-2.13,3.75-2.25v1.5a3.65,3.65,0,0,0-2.26.74C50.18,1.69,52.58,4.6,48.75,5.06Z"/><path class="cls-2" d="M50.94,11.05c-.2.91-.59,2-1.47,2.12-.69.13-1.47,1.07-2.22-1.36,2.33.75,3-1.21,3.75-3A9.85,9.85,0,0,1,50.94,11.05Z"/><path class="cls-2" d="M47.32,18.6a3.35,3.35,0,0,0-.07,1.46,2.41,2.41,0,0,1-.58-2.87c.28-.38,1.33-.13,2.08-.13A6.9,6.9,0,0,0,47.32,18.6Z"/><path class="cls-2" d="M34.75,22.31c0-.49.26-1.24.06-1.36-.77-.48-1.91-.32-2.9-.42.27-.23.51-.55.83-.62.86-.22,1.72.86,2,.69,2-1.12,4.17-4.7,5.79-6.33.23.28-1,2.61-1,2.67C37.74,19.18,36.48,20.15,34.75,22.31Z"/><path class="cls-2" d="M38.78,24.23c-.66-.43-2-.4-1.34-1.47,1.28-2.15,4.12-2.17,5.87-3.82.44,2.11,3.16,1.61,4.42,3.07.25.3,0,.93.12,1.42.18.77.21,1.76,1.46,1.51l-.75.75c-1.33-2-1.62.21-3,0,.5-.25,1.26-.42,1.37-.79a3.37,3.37,0,0,0-.65-3.67c-.41-.37-1.11-.81-1.39-.65-.9.5-1,1.74-.83,2.86-1.22-1.13-1.78-3.79-3.62-2.78a10.4,10.4,0,0,0-2.15,2.22c-1.09,1.33,2.43.94,2,2.81A9.62,9.62,0,0,0,38.78,24.23Z"/><path class="cls-2" d="M31.85,24.51c.14.18,1-.3,1.25-.09.46.47,1.83,1.12,2,1.86.45-.35,1.18-.67,1.18-1,0-1-2.46-1.16-3.88-1.65a2.09,2.09,0,0,1-1.22-1.94C31.35,22.64,31.29,23.8,31.85,24.51Z"/><path class="cls-2" d="M28.41,24.09c.49,1.61-.85,1.1-1.41.16-.38-.94-.92-3.74,1.5-3.85.24,0,.5.41.75.66C28.72,21.51,26.7,18.5,28.41,24.09Z"/><path class="cls-2" d="M3.94,6.56C3.59,4.61,6.59.72,7.5-.94A1.83,1.83,0,0,1,7.75.75C7.37,2.73,5.12,4,5.14,6.6c-.57.94-.5,1.56-2.14,1.46Z"/><path class="cls-2" d="M1.25,14.38c2.29-1.27,0-1.4,2.69-2.57,1.31.38,1.6,2,1.68,3.38,0,.32-.37,1.37-.37,1.87-.25-.5-.5-1-.75-1.5s-.45-1.78-.62-1.81A3.91,3.91,0,0,0,1.25,14.38Z"/><path class="cls-2" d="M17.12,2.38V.88a3.3,3.3,0,0,0,2.26.74Z"/><path class="cls-2" d="M3.84,21.41c.5,1.6-.84,1.09-1.4.15-.38-.94-.92-3.74,1.5-3.85.24,0,.5.41.75.67C4.16,18.83,2.13,15.82,3.84,21.41Z"/><path class="cls-2" d="M-.73,43.18c.83-.31,1.72.69,2.13.49,2.15-1,2-3.56,4.68-1.39,0,0,.61-.43.57-.64-.12-.76-.91-1.41-.6-2.25.21-.58.8-.7,1.41-.9C9.32,37.87,7,36,9.65,34.67c.3-.15.33-1.41,0-2-.79-1.26-2.34-.79-3.63-.82a3.59,3.59,0,0,0,3-1.5l-.75,1.5,3,1.5c-.5.25-1.23.4-1.38.79-.35.87.15,2.08-.26,2.89-.1.2-1-.1-1.26.15-1.22,1.43-.6,4-1.83,4.85-2,1.41-6,.95-7,4.14-.17.56,1.14,1.27,2,1.32s1.85-.67,2.24-2.14a2,2,0,0,0,.81,2.09C6,48,5.92,45,7.46,45.5a1.39,1.39,0,0,1,.66,1.33c-.12.38-.87.71-1.37.71-.25,0-.59-.62-.71-.56-1.53.66-3.58.47-4.47,2.18a3.36,3.36,0,0,0-.07,1.46c-.82,0-2.15.29-2.06-.73s1-2,.46-3c-.21-.41-.9-.55-1.4-.81Z"/><path class="cls-2" d="M10.21,50.63c.38-.14.54-.88.79-1.38l1.5.75c1.33-3.25,3.59-7.42,7.5-7.5V44a2.08,2.08,0,0,0-2.13.82c-.69,1.18,1.55,1.87-.12,3.68,0-1.3.41-3.13-.83-3.5-1.49-.45-2.48,1.86-2.17,3.5-.5,0-1.27-.13-1.36.07-.92,2-3.3,2.38-3.89,4.43-1.23-1.35-3.39-1.65-3.75-3.75C7.58,48.76,8.58,51.22,10.21,50.63Z"/><path class="cls-2" d="M.75,34.12c-1.59.18-.68-.9-.75-1.5Q.38,33.39.75,34.12Z"/><path class="cls-2" d="M4.62,34a2.7,2.7,0,0,1,.63,2.34c-.5-.26-1.34-.52-1.33-.75C4,34,2.41,32.77,3,31.12,4,31.86,4,33.16,4.62,34Z"/><path class="cls-2" d="M.75,29.62c-.21-1.66,1.11-.27,1.5-.74Z"/><path class="cls-2" d="M14.33,31.13c-.13,2.54,1.82,4,3.67,5.25A3.26,3.26,0,0,0,15.74,35c-.23,0-.49.57-.74.57-.5,0-1.31-.38-1.34-.68-.14-1.45-.78-2.94.45-4.59.15-.21-.36-.89-.61-1.39l-1.5.74-1.5-3c2.28.33,2.59,3,4.5,3.76C14.75,30.63,14.34,30.87,14.33,31.13Z"/><path class="cls-2" d="M19.14,34.59c1.28.13,1.25-1,1.26-1.64s-.45-1,1.18-2.58c.32-.3.38-1.38.72-2.11l.82.67c-.48.3-1.16.51-1.32.93-.24.64.32,1.67,0,2.09C21.2,32.64,20,33,20,34.52c0,.23.66.52.62.63a5.94,5.94,0,0,0-.35,3.1C18.71,37.38,19.24,35.89,19.14,34.59Z"/><path class="cls-2" d="M26.47,31.78c-1.25,1.56-2.87-.09-3.78,1.9,1.31-.46.53.35,2.95.78-.05-.55-.29-1.4-.09-1.52,2.43-1.4,1.17-4.49,3-6.38l-1-.23a9,9,0,0,1-.92,3.07C24.91,30.53,27.55,30.43,26.47,31.78Z"/><path class="cls-2" d="M21.15,40.69c-1.82-1.47-1.77.4-3.15.19.25-.51.5-1,.75-1.5,1.28,1.65,2.58-.61,3.57.21C23.12,40.24,21.38,40.88,21.15,40.69Z"/><path class="cls-2" d="M22.63,44.71c0,.28-1,.4-1.24.81-1,2.15-.33,2.76.74,4.43a1,1,0,0,1-1.41-.76c-.21-1.27.59-1.16-.72-2.44-.38-.37,1.33-1.34,1.65-2.18.62-1.61,2-2.1,2.79-3.51.29-.49,1.28.17,1.2.63C25.35,43.38,22.81,41.12,22.63,44.71Z"/><path class="cls-2" d="M23,8c-.41-.29.31-.92.89-1.19.65,1.51,3.21.43,3.24,2.14,0,.63-.94,1.19-1,2.08C24.74,10,24.56,9.07,23,8Z"/><path class="cls-2" d="M29.25,40.5c.75,1.64-1.22,1-1.51,1.83C26.67,40.42,29.61,41.83,29.25,40.5Z"/><path class="cls-2" d="M31.09,41.29,32.6,42c.24-.51.75-1.12.6-1.45-1-2.15.3-4.38.95-6.37a1.59,1.59,0,0,0,2.17-.82c.93-1.8,2.85-4.58,3-6.68-.55.1-1.41.11-1.48.36C37,30.26,34.33,35.2,30.75,36c-.12,0-.21.62-.11.93.27.84,1.47.86,1.75,1.42C32.93,39.42,31.79,40.38,31.09,41.29Z"/><path class="cls-2" d="M29.37,31.88c.12.49-.31,1.11.24,1.64.88-2.17.92-4.64,3.28-6.27-.95-.67-1.59.12-2.32.49C31.71,29.5,28.9,30.06,29.37,31.88Z"/><path class="cls-2" d="M33.81,46.91c-.59,1.15,1.46,2.89,2.13,2.72a2,2,0,0,0,1.56-2.75c3.07.15,6.8,3.27,4.31,5.82-.52.53-1.85-.17-2.81-.58a2.74,2.74,0,0,0,2.11-3.68A2.17,2.17,0,0,0,39,47.6c-2,.15-1.13,2-2.28,3a2.28,2.28,0,0,1-1.46.69c-.88-.07-1.55-.89-2.33-1.27-.31-.15-1.1.25-1.34.67a1.53,1.53,0,0,0,.66,2.2c-1.26.25-1.47-.91-1.34-1.47.32-1.37,2.83-1.19,2.77-3,0-1-.71-1.86-2.18-2.26,3.29.71,2.51-2.94,4.86-3.74,1.49-.51.78.82.64,1.37C36.62,45.2,34.48,45.6,33.81,46.91Z"/><path class="cls-2" d="M38.76,37.67a6.71,6.71,0,0,0-1.51.71c1.21-.85,0-2.11,2.14-3.22.5-.26.29-1.51-.64-2l.75-.74c-.34,1.83.4,3.51.75,5.24A5.7,5.7,0,0,0,38.76,37.67Z"/><path class="cls-2" d="M44.17,34.38a4.14,4.14,0,0,1-.67,1.5c-.25-.26-.7-.6-.65-.7a6,6,0,0,0,.65-3.06A7.77,7.77,0,0,1,44.17,34.38Z"/><path class="cls-2" d="M43.12,28.67c-1.28.32-1.38-.84-1.38-1.48s.82-1.14,1.3-.66,0,1.7,2.34,1.41C44.62,28.19,43.91,28.47,43.12,28.67Z"/><path class="cls-2" d="M47.12,29.13c-.71.8-1,2.95-2,2S46.24,29.76,47.12,29.13Z"/><path class="cls-2" d="M47.08,49.09c-.22.94-.5,2.76-2,2.14-.18-.07-.06-.85-.06-1.35,1.27.06,2.73-.33,2.83-2.26,0-.23-1.11-.42-1.18-.77-.15-.69-1.08-1.47,1.35-2.23C47,46,47.44,47.59,47.08,49.09Z"/><path class="cls-2" d="M.38,9.38C.27,11.82.2,11-2.25,11.81c.5-.25,2-.94,2.1-1.32.24-.78-.08-1.13.32-1.83C0,7.91-1.31,7.91-.62,6.88c1-1.53.21-3.75,2.13-4.54.43-.18.24.47.74.47C2.25,4.88.47,7.16.38,9.38Z"/><path class="cls-2" d="M48.54,34.16c.31-3.89-.54-6,3.58-4.51.94,1.31-1.81.21-2.11.82-.15.3,1.67,1.05,1.55,1.43s-2.11.39-2.35.8c-.43.75.26,1.5.66,2.2C49.37,34.65,48.53,34.38,48.54,34.16Z"/><path class="cls-2" d="M46.88,38.62c-1.3-.18-1.34.85-1.42,1.54,0,.23.61.58.56.69-.73,1.56-2.4.54-3.65.8.5,0,1.21.16,1.38-.08,1-1.38,2.84-3.57.87-5.17,1,1.23,3.16.41,3.75,2.25A9.25,9.25,0,0,1,46.88,38.62Z"/><path class="cls-2" d="M43.3,45.65c-1.53.06-3.27.56-4.88.18a3.64,3.64,0,0,1,1.32-.75c.5,0,.51.75.89.63s.53-1.2.8-1.22c1.59-.08,3-.77,4.49-.91-.25.5-.39,1.2-.8,1.4A4.21,4.21,0,0,1,43.3,45.65Z"/><path class="cls-2" d="M50.25,42c-.21.45-1-.14-1.33-.67,1.37-.9-.14-3.23,1.54-3.57.62-.12,1.33.72,2.21.57C52,40,51,40.32,50.25,42Z"/><path class="cls-2" d="M21.5,22.73c-1.29-.19-1.34.84-1.41,1.53,0,.22.61.58.56.69-.73,1.55-2.4.54-3.65.8.5,0,1.21.16,1.38-.08.95-1.38,2.83-3.57.87-5.17,1,1.23,3.15.41,3.75,2.25A10.73,10.73,0,0,1,21.5,22.73Z"/><path class="cls-2" d="M16.5,30.75c.52-1.46,1.83-1.35,3-1.5C18.77,30.29,17.6,30.46,16.5,30.75Z"/><path class="cls-2" d="M2.39,26.71c-.12.05-.45-.4-.7-.65.8-.42,1.3-2.11,2.07-1.33S3.19,27,2.39,26.71Z"/><path class="cls-2" d="M2.25,39c.48-1.06,1.43-.7,2.25-.75C4,39.18,3.14,39.16,2.25,39Z"/><path class="cls-2" d="M27.35,38.61c-.47.46-.44.61-.74.72-.84.3-1.54-.3-2.23-.71,2.57.55,3.59-1.54,3-3.74.5.25,1.33.49,1.33.74C28.71,36.63,27.94,37.62,27.35,38.61Z"/><path class="cls-2" d="M40.24,6.28c-.46.47-.44.61-.74.72-.84.3-1.53-.3-2.23-.7,2.57.54,3.59-1.55,3-3.75.5.25,1.33.5,1.33.75C41.6,4.3,40.83,5.3,40.24,6.28Z"/><path class="cls-2" d="M15.75,39.75A3.35,3.35,0,0,0,15,37.5a1,1,0,0,1,1.4.76A3.58,3.58,0,0,1,15.75,39.75Z"/><path class="cls-2" d="M11.44,1.31a3.35,3.35,0,0,0-.75-2.25,1,1,0,0,1,1.39.76A3.51,3.51,0,0,1,11.44,1.31Z"/><path class="cls-2" d="M-1.5,37.31C-1,35.85.33,36,1.5,35.81.77,36.85-.4,37-1.5,37.31Z"/><path class="cls-2" d="M2.25,1.12C.46.89,2-.46,1.5-1.12,3.69-1,.93.73,2.25,1.12Z"/><path class="cls-2" d="M54.6,22.29c-.14.87-1.78,1.1-1.83,1.55-.22,1.86-.91,2.24-1.77,3.72-.25-.25-.67-.49-.67-.75,0-1,1.48-1.57,1.77-2.39.89-2.45.71-6.23,1.28-7.17.16.09,1.36-1.25,1.74-1.63Z"/><path class="cls-2" d="M13.6,2.2C15.25,1,15.87-2.71,17.75-3.5c-1.52,1.15-1.67,4.89-2.88,6.19C12.55,5.18,9.29,6.51,7.58,9.61c-.62,1.12.7,2.71-.83,3.7-.26-2.43-.23-5,1.66-6.55S11.61,3.69,13.6,2.2Z"/><path class="cls-2" d="M34,1.26c-.7.79-1,3-2,2S33.12,1.89,34,1.26Z"/><path class="cls-2" d="M36.5,1.75c-.44.49-1.18-.08-1.32-.68-.23-1-1.2-2.6-.08-3a3.77,3.77,0,0,0,3,.75C35.52-1.2,37.22,1,36.5,1.75Z"/><path class="cls-2" d="M44,2.45c.16.3.75-.1,1-.45-1.06-.61.11-2.17-1.2-2.39-.48-.09-1,.48-1.72.38C42.65,1.09,43.36,1.32,44,2.45Z"/><path class="cls-2" d="M20.75,13c.52-1.46,1.83-1.35,3-1.5C23,12.54,21.85,12.71,20.75,13Z"/><path class="cls-2" d="M51,15.75c.48-1.06,1.43-.7,2.25-.75C52.73,15.93,51.89,15.91,51,15.75Z"/><path class="cls-2" d="M55.5,50.62c-.82,0-2.15.29-2.06-.73s1-2,.46-3c-.21-.41-.9-.55-1.4-.81-.81,2.28-3.32,3.36-3.8,6-.14.76-.51,2.1-1.28,1.34s1.1-1,1.12-1.35c.16-2.91,1.88-4.94,3.78-6.91.38-.38,0-1.65,1-2,.83-.31,1.72.69,2.13.49l-.06.33a3.65,3.65,0,0,0-1.84,2.2c-.17.56,1.14,1.27,2,1.32Z"/><path class="cls-2" d="M26.75,6.5A3.35,3.35,0,0,0,26,4.25,1,1,0,0,1,27.4,5,3.58,3.58,0,0,1,26.75,6.5Z"/><path class="cls-2" d="M24.23,22.91c1.68,0,.11,1.13.52,1.59C24.57,24,24.4,23.44,24.23,22.91Z"/><path class="cls-2" d="M50.25,21.75a3.35,3.35,0,0,0-.75-2.25,1,1,0,0,1,1.4.76A3.58,3.58,0,0,1,50.25,21.75Z"/><path class="cls-2" d="M43.75,7.5a3.26,3.26,0,0,1,1.06-2.12,1,1,0,0,0-1.49.55A3.5,3.5,0,0,0,43.75,7.5Z"/><path class="cls-2" d="M9.26,2.92C10,4.56,8,4,7.75,4.75,6.67,2.84,9.62,4.25,9.26,2.92Z"/><path class="cls-2" d="M35.5,9c-1.59.17-.68-.91-.75-1.5Z"/><path class="cls-2" d="M26,50.35c1.27-.34.9-1.31.69-2-.06-.22-.78-.29-.78-.42.05-1.71,2-1.44,3-2.17-.45.2-1.17.33-1.23.62-.33,1.64-1.19,4.4,1.24,5.09-1.36-.75-3,.87-4.33-.58A10.29,10.29,0,0,1,26,50.35Z"/><path class="cls-2" d="M11.25,24.5c-1.59.17-.68-.91-.75-1.5Z"/><path class="cls-2" d="M13.5,19c.48-1.06,1.43-.7,2.25-.75C15.23,19.18,14.39,19.16,13.5,19Z"/><path class="cls-2" d="M35,30.5c-1.59.17-.68-.91-.75-1.5Z"/><path class="cls-2" d="M30.48,45c.12-.59-.27-1-.6-1.51.58-.14,1.07.13,1.12.51S30.68,44.67,30.48,45Z"/><path class="cls-2" d="M25.07,45.26c-.46,4.3-.57,0-.82,0C25,45,26,45,25.75,43.75A4.73,4.73,0,0,0,25.07,45.26Z"/><path class="cls-2" d="M9.59,39.25c2.5-.76.26-1.37,3.15-2,1.21.64,1.16,2.27,1,3.65,0,.32-.65,1.27-.76,1.76l-.42-1.63c-.15-.55-.07-1.83-.24-1.9A3.88,3.88,0,0,0,9.59,39.25Z"/><path class="cls-2" d="M10.34,45.73c.35,1.27,1.41.8,2,.47s.59-1.27-.06-1.45-1.49.83-2.38-1.34C10,44.19,10.13,45,10.34,45.73Z"/><path class="cls-2" d="M-5.25,5.06A1,1,0,0,1-6,6.47c-.87.13-2,.41-2,.85a3.32,3.32,0,0,1-2.47,3A14.9,14.9,0,0,1-5.33,4.94c.24-.17,0-.94.15-1.34.65-1.33,2.65.12,2.84-2.29,0-.24-.41-.5-.66-.75,2.11.6,1.86-2.13,3.75-2.25v1.5A3.65,3.65,0,0,0-1.51.55C-3.82,1.69-1.42,4.6-5.25,5.06Z"/><path class="cls-2" d="M.6,22.29c-.14.87-1.78,1.1-1.83,1.55-.22,1.86-.91,2.24-1.77,3.72-.25-.25-.67-.49-.67-.75,0-1,1.48-1.57,1.77-2.39C-1,22-1.19,18.19-.62,17.25c.16.09,1.36-1.25,1.74-1.63Z"/><path class="cls-2" d="M1.5,50.62c-.82,0-2.15.29-2.06-.73s1-2,.46-3c-.21-.41-.9-.55-1.4-.81-.81,2.28-3.32,3.36-3.8,6-.14.76-.51,2.1-1.28,1.34s1.1-1,1.12-1.35c.16-2.91,1.88-4.94,3.78-6.91.38-.38-.05-1.65,1-2,.83-.31,1.72.69,2.13.49L1.34,44A3.65,3.65,0,0,0-.5,46.2c-.17.56,1.14,1.27,2,1.32Z"/></pattern></defs><title>logo</title><path class="cls-3" d="M170.46,500.42a126.55,126.55,0,0,1,253.09,0" transform="translate(-168.46 -262.46)"/><path class="cls-4" d="M191.13,500.42a107.24,107.24,0,1,1,214.47,0" transform="translate(-168.46 -262.46)"/><rect class="cls-5" x="2" y="237.96" width="253.08" height="22.48"/><rect class="cls-6" x="110.8" y="35.81" width="36.55" height="83.76"/><line class="cls-7" x1="110.8" y1="35.81" x2="135.35" y2="35.81"/><ellipse class="cls-8" cx="128.8" cy="16.25" rx="1.4" ry="16.25"/><ellipse class="cls-9" cx="138.24" cy="21.84" rx="1.33" ry="10.65"/><line class="cls-7" x1="110.71" y1="50.76" x2="147.35" y2="50.76"/><circle cx="85.04" cy="214.37" r="11.09"/><circle cx="73.95" cy="219.37" r="11.09"/><ellipse cx="87.18" cy="228.66" rx="14.23" ry="9.29"/><circle cx="62.86" cy="219.37" r="11.09"/><ellipse cx="68.41" cy="228.66" rx="16.63" ry="9.29"/><ellipse cx="200.31" cy="228.66" rx="11.09" ry="9.29"/><circle cx="178.13" cy="219.37" r="11.09"/><ellipse cx="183.24" cy="228.66" rx="17.08" ry="9.29"/><ellipse cx="105.86" cy="226.16" rx="17.47" ry="11.79"/><circle cx="103.04" cy="210.43" r="11.09"/><circle cx="117.49" cy="214.37" r="11.09"/><ellipse cx="123.34" cy="228.34" rx="13.93" ry="10.5"/><circle cx="128.49" cy="205.33" r="11.09"/><ellipse cx="137.27" cy="229.74" rx="12.05" ry="8.22"/><ellipse cx="149.32" cy="227.89" rx="11.09" ry="10.06"/><ellipse cx="164.28" cy="228.66" rx="13.85" ry="9.29"/><circle cx="160.41" cy="216.42" r="11.09"/><ellipse cx="51.77" cy="228.66" rx="11.09" ry="9.29"/><rect class="cls-10" x="413.96" y="336.82" width="7.14" height="135.31" rx="3.57" transform="translate(247.68 723.33) rotate(-133.95)"/><rect class="cls-11" x="332.54" y="436.23" width="51.1" height="51.1" rx="12" transform="translate(105.73 777.62) rotate(-133.95)"/><circle cx="190.24" cy="220.39" r="12.11"/><ellipse cx="377.7" cy="489.89" rx="11.09" ry="9.59" transform="translate(-287.53 -141.18) rotate(-15.79)"/><circle cx="178.13" cy="214.37" r="11.09"/><line class="cls-7" x1="5.51" y1="208.28" x2="23.45" y2="211.48"/><line class="cls-7" x1="20.57" y1="172.28" x2="37.77" y2="180.84"/><line class="cls-7" x1="44.3" y1="141.78" x2="61.32" y2="153.1"/><line class="cls-7" x1="80.19" y1="119.57" x2="91.95" y2="136.28"/><line class="cls-7" x1="252.46" y1="208.28" x2="233.36" y2="211.69"/><line class="cls-7" x1="212.68" y1="142.44" x2="196.65" y2="153.1"/><line class="cls-7" x1="177.78" y1="119.57" x2="166.02" y2="136.28"/><circle cx="162.54" cy="214.92" r="11.09"/><circle cx="216.99" cy="232.33" r="5.54"/><line class="cls-7" x1="238.32" y1="173.46" x2="221.13" y2="182.01"/><path class="cls-12" d="M258.28,534a1.88,1.88,0,0,0-.19-.38l-.37-.6c-.16-.23-.27-.4-.35-.53a.68.68,0,0,1-.11-.26q0-.29.66-.93c.43-.44.76-.66,1-.66a1,1,0,0,1,.32.19h.31l.56.26.57.25a3.41,3.41,0,0,1,1,.61,3.67,3.67,0,0,0,.65.51,2.42,2.42,0,0,0,.25.27c.12.13.29.28.5.47l.1.11.13.18a12,12,0,0,1,.74,1,4.2,4.2,0,0,1,.45.81,5.07,5.07,0,0,1,.29,1,6.51,6.51,0,0,1,.1,1.13,5.28,5.28,0,0,1-.31,1.9,2.23,2.23,0,0,1-.94,1.14.93.93,0,0,1-.18.12,1.43,1.43,0,0,0-.22.15l-.13.13a2.12,2.12,0,0,1-.58.41,9.28,9.28,0,0,1-1.05.47l-1.82.73-.45.22a.91.91,0,0,1-.29.08.84.84,0,0,0-.36,0,2.81,2.81,0,0,0-.11.81c0,.34,0,.66-.06,1a1,1,0,0,0,.11.41,2.34,2.34,0,0,0,.33.49,3.84,3.84,0,0,1-.21.4,4.49,4.49,0,0,1-.29.41,1.44,1.44,0,0,1-.38.42.66.66,0,0,1-.36.14.53.53,0,0,1-.5-.36,2.9,2.9,0,0,1-.15-1.07,2.58,2.58,0,0,1,.07-.56q.08-.35.21-.84l-.05-.59-.26-.14a1.65,1.65,0,0,1-.25-.15.6.6,0,0,1-.26-.18.35.35,0,0,1-.07-.21c0-.08.16-.2.49-.36a.71.71,0,0,0,.49-.63,1.6,1.6,0,0,0,0-.33,1.73,1.73,0,0,1-.05-.31c.06-.4.13-.79.2-1.19a1.53,1.53,0,0,0,.06-.37c0-.2,0-.49.08-.87,0-.12,0-.26.09-.44l.13-.61-.07-.36Zm.83-1.21s-.07,0-.08,0a.12.12,0,0,0,0,.09c.8.84,1.2,1.45,1.2,1.85a25.29,25.29,0,0,1-.93,3.27l.09.43c-.19.69-.32,1.27-.42,1.76a7,7,0,0,0-.13,1.18.24.24,0,0,0,0,.16.19.19,0,0,0,.13,0,1.42,1.42,0,0,0,.37-.09,5.35,5.35,0,0,0,.68-.32l.53-.26.53-.25.26-.16c.1-.07.21-.14.32-.23a4.65,4.65,0,0,0,.39-.3l.18-.15a1.93,1.93,0,0,0,.66-.76,2.44,2.44,0,0,0,.23-1.09,3.35,3.35,0,0,0-.09-.76,4.55,4.55,0,0,0-.26-.79l0-.24a.37.37,0,0,0-.07-.12l-.11-.15a.75.75,0,0,1-.13-.16,1.26,1.26,0,0,1-.14-.26,3.45,3.45,0,0,0-.59-.79,12.26,12.26,0,0,0-1.13-1.07l-.19-.17c-.06-.07-.14-.13-.22-.21l-.46-.21Z" transform="translate(-168.46 -262.46)"/><path class="cls-12" d="M266.44,543.41a8.44,8.44,0,0,1,.05-1,4.73,4.73,0,0,1,.1-.62c0-.11,0-.23,0-.35s0-.38,0-.71.09-.77.16-1.3.11-.92.15-1.2.08-.45.1-.51,0-.24-.05-.38a2.76,2.76,0,0,0-.08-.44l-.23-.17-.05-.12c0-.19,0-.38,0-.57a4,4,0,0,1,.07-.59,2.9,2.9,0,0,1,.09-.64c0-.18.11-.34.16-.48s0-.08.07-.14a1.07,1.07,0,0,1,.09-.19c.06-.25.12-.49.19-.73s.12-.48.19-.72a1.33,1.33,0,0,1,.44-.55,1.42,1.42,0,0,1,.69-.28,4.88,4.88,0,0,1,.48-.23,1,1,0,0,1,.33-.07.24.24,0,0,1,.22.11.48.48,0,0,1,.08.31,4.4,4.4,0,0,1-.08.57c0,.32-.14.76-.25,1.33,0,.19,0,.42-.1.68s-.11.57-.2.93-.2.84-.3,1.32-.18,1-.26,1.58l-.12.72c0,.24-.07.48-.11.72s-.07.54-.1.79a4.12,4.12,0,0,0,0,.66,1.55,1.55,0,0,0,0,.22,1.37,1.37,0,0,1,0,.19,1,1,0,0,1,0,.3c0,.12,0,.26-.05.43s-.05.31-.07.44a2.44,2.44,0,0,0,0,.3c0,.35,0,.63,0,.84a2.84,2.84,0,0,0,.06.43c.05.18.09.38.14.59s-.15.28-.46.51a1.34,1.34,0,0,1-.66.34.33.33,0,0,1-.22-.09,1,1,0,0,1-.19-.26,3,3,0,0,1-.12-.29,1.18,1.18,0,0,1,0-.25,1.3,1.3,0,0,1,0-.19.63.63,0,0,0,0-.19,2.13,2.13,0,0,0-.18-.51c0,.07,0,0,0,0Z" transform="translate(-168.46 -262.46)"/><path class="cls-12" d="M278.24,542.64l.14.3.18.4a.56.56,0,0,1,.07.13.36.36,0,0,1,0,.1,12.22,12.22,0,0,1-1.28.52c-.45.16-.92.3-1.41.44l-.47.1-.61.15-.68.24c-.26.09-.58.19-.93.28l-.67.17-.68.16c-.28.06-.53.12-.77.15a4.84,4.84,0,0,1-.59.05,1.58,1.58,0,0,1-1-.24.86.86,0,0,1-.32-.74,2.59,2.59,0,0,1,.18-1A2.87,2.87,0,0,1,270,543c.07-.1.16-.23.27-.36s.24-.29.39-.46.23-.21.4-.38a8.23,8.23,0,0,0,.59-.72l.48-.6c.16-.21.33-.41.48-.62s.17-.22.28-.37l.38-.54a3,3,0,0,0,.3-.31c.11-.12.24-.26.37-.43s.39-.53.61-.84.44-.66.67-1a15.24,15.24,0,0,0,.85-1.43,2.05,2.05,0,0,0,.28-.79.36.36,0,0,0-.16-.27,2.16,2.16,0,0,0-.5-.28l-.5-.19a1.56,1.56,0,0,0-.37-.07l-.77,0-.28-.09-.31-.09-.5.17a2.13,2.13,0,0,0-.35-.1l-.31,0-1.13.11-.28-.11a.23.23,0,0,1-.07-.15c0-.08,0-.19-.08-.31l.18-.34c.08-.14.16-.3.25-.48a1.49,1.49,0,0,0,.05-.21,1,1,0,0,1,.41-.54,1.4,1.4,0,0,1,.79-.19l.44,0,.36,0,.14.11a2.94,2.94,0,0,0,.34-.1.68.68,0,0,1,.2,0l1.21.23c.12,0,.26,0,.43,0l.58.09a1.93,1.93,0,0,0,.36.2l.51.23a2.37,2.37,0,0,1,.68.39,1.9,1.9,0,0,1,.47.56,2.07,2.07,0,0,1,.24.5,1.9,1.9,0,0,1,.07.45,2.39,2.39,0,0,1-.08.62,1.79,1.79,0,0,1-.25.52l-.13.4a1,1,0,0,1-.1.22,1.6,1.6,0,0,1-.19.29c-.11.15-.24.31-.37.47a1.61,1.61,0,0,1-.18.28,2.15,2.15,0,0,1-.34.33l-.1.09a1.45,1.45,0,0,0-.1.18,4,4,0,0,1-.35.55l-.58.73c-.3.35-.54.63-.71.85l-.37.45-.24.21-.26.27-.14.3a2.59,2.59,0,0,1-.35.53c-.21.26-.49.61-.86,1a11.14,11.14,0,0,0-.79,1,1.31,1.31,0,0,0-.25.53c0,.05,0,.08.08.1l.4-.07.27,0,.51,0,.35.1a3.06,3.06,0,0,1,.51-.12,1.8,1.8,0,0,1,.37,0,5.77,5.77,0,0,0,1-.07,4,4,0,0,0,.83-.22l.51-.09.7-.17.23-.09.25-.1.31-.06A1.09,1.09,0,0,0,278.24,542.64Z" transform="translate(-168.46 -262.46)"/><path class="cls-12" d="M287,542.64l.13.3.18.4a.56.56,0,0,1,.07.13.18.18,0,0,1,0,.1,11.39,11.39,0,0,1-1.28.52c-.45.16-.92.3-1.41.44l-.46.1-.62.15L283,545c-.27.09-.58.19-.93.28l-.68.17-.68.16c-.27.06-.53.12-.76.15a5.15,5.15,0,0,1-.6.05,1.58,1.58,0,0,1-1-.24.89.89,0,0,1-.32-.74,2.59,2.59,0,0,1,.18-1,3.08,3.08,0,0,1,.54-.86c.07-.1.16-.23.27-.36s.24-.29.39-.46a4.16,4.16,0,0,0,.4-.38,8.23,8.23,0,0,0,.59-.72c.15-.19.32-.39.48-.6s.33-.41.48-.62.17-.22.28-.37l.39-.54.3-.31.37-.43q.28-.37.6-.84c.21-.32.44-.66.68-1,.38-.59.66-1.06.85-1.43a2.25,2.25,0,0,0,.28-.79.38.38,0,0,0-.17-.27,2.16,2.16,0,0,0-.5-.28l-.5-.19a1.56,1.56,0,0,0-.37-.07l-.77,0-.28-.09-.31-.09-.5.17a2.13,2.13,0,0,0-.35-.1l-.31,0-1.13.11-.27-.11s-.06-.08-.08-.15,0-.19-.08-.31.11-.21.19-.34l.24-.48a1.49,1.49,0,0,0,.05-.21,1,1,0,0,1,.41-.54,1.42,1.42,0,0,1,.79-.19l.44,0,.36,0,.15.11.33-.1a.68.68,0,0,1,.21,0l1.21.23.42,0,.58.09a2.9,2.9,0,0,0,.36.2l.52.23a2.68,2.68,0,0,1,.68.39,2,2,0,0,1,.46.56,2.07,2.07,0,0,1,.24.5,1.5,1.5,0,0,1,.07.45,2.39,2.39,0,0,1-.08.62,1.79,1.79,0,0,1-.25.52l-.13.4a.84.84,0,0,1-.09.22l-.19.29c-.12.15-.24.31-.38.47a.93.93,0,0,1-.18.28,2.15,2.15,0,0,1-.34.33l-.09.09a.78.78,0,0,0-.11.18,4,4,0,0,1-.35.55c-.15.21-.35.45-.58.73s-.54.63-.71.85a5.63,5.63,0,0,0-.36.45l-.25.21-.26.27-.13.3a3.45,3.45,0,0,1-.36.53c-.2.26-.49.61-.85,1a9.91,9.91,0,0,0-.8,1,1.31,1.31,0,0,0-.25.53.11.11,0,0,0,.08.1l.4-.07.27,0,.51,0,.36.1a3,3,0,0,1,.5-.12,1.8,1.8,0,0,1,.37,0,5.9,5.9,0,0,0,1-.07,4.11,4.11,0,0,0,.82-.22l.51-.09.7-.17.23-.09.26-.1.31-.06A1.49,1.49,0,0,0,287,542.64Z" transform="translate(-168.46 -262.46)"/><path class="cls-12" d="M295.89,542.64l.39.93-.27.22-.37.25-.52.2-.68.31a5.48,5.48,0,0,1-.49.27.8.8,0,0,1-.26.1,1.71,1.71,0,0,0-.48.11c-.23.07-.54.18-.92.33l-.64.23c-.23.08-.47.15-.71.21l-.63-.13-.39.17h-.39l-.38,0a1.15,1.15,0,0,1-.44-.08.23.23,0,0,1-.15-.21l.06-.38-.06-.07a.81.81,0,0,1-.46-.09c-.08-.06-.12-.21-.12-.43s0-.27,0-.51,0-.54,0-.92a.63.63,0,0,1,.07-.22.77.77,0,0,0,.06-.23,1.16,1.16,0,0,1-.06-.16s0-.08,0-.12c0-.26,0-.59.09-1s.1-.85.17-1.37a9.11,9.11,0,0,0,.2-1.08c0-.3,0-.6,0-.92.25-1.12.51-2.25.77-3.39a1.8,1.8,0,0,1,.23-.58,3.88,3.88,0,0,1,.4-.53l.14-.11a2,2,0,0,1,.13-.23l.19-.31.2-.12.37-.23a1.77,1.77,0,0,0,.23-.19l.31-.26a7.64,7.64,0,0,0,.72-.5,1.63,1.63,0,0,1,.82-.32l.47,0,.45,0,.35-.05.18,0,.14,0,.17,0,.29,0h.43a1.18,1.18,0,0,1,.6.36.83.83,0,0,1,.2.56,3,3,0,0,1-.14,1,.46.46,0,0,1-.43.34.88.88,0,0,1-.51-.23,3.07,3.07,0,0,0-1.54-.23l-1,.2a.51.51,0,0,1-.12.13l-.12.06-.35-.13a1,1,0,0,0-.37.33,4.46,4.46,0,0,0-.42.75.88.88,0,0,0-.08.26,1.83,1.83,0,0,0,0,.35c-.12.49-.24,1-.36,1.42s-.21.85-.28,1.1-.12.41-.13.46a1.8,1.8,0,0,0-.05.19,1.37,1.37,0,0,0,0,.19.37.37,0,0,0,.05.2.17.17,0,0,0,.15.07c.06,0,.21-.11.44-.33a1.46,1.46,0,0,1,.53-.38l.43-.13.45-.17.49-.09,1.09-.12.28.08.54-.1.29.13a1.81,1.81,0,0,1,.19.25l.15.32a2.48,2.48,0,0,1-.13.93.43.43,0,0,1-.4.31l-.56-.22-1.36.14-1.38.12a3,3,0,0,0-1.31.56,1.41,1.41,0,0,0-.51,1c0,.09,0,.22-.07.41s-.09.41-.14.68l.07.3c-.06.29-.11.57-.14.83a4.31,4.31,0,0,0-.05.69c0,.06,0,.11,0,.14s0,0,.07,0l.78-.06a3.26,3.26,0,0,1,.42,0l.53,0,.65-.05.44-.16a1.51,1.51,0,0,1,.61-.15,3.05,3.05,0,0,0,.6-.06,3.41,3.41,0,0,0,.57-.16l.55-.21.54-.21a1.27,1.27,0,0,0,.27-.11Z" transform="translate(-168.46 -262.46)"/><path class="cls-12" d="M299.72,540a1,1,0,0,0,.29.54,7.16,7.16,0,0,0,.87.84c.25.21.51.42.78.62l.8.6.44.38.64.53.56.41c.19.13.4.27.62.4l.5.38.63.44a.81.81,0,0,1,.32.44,2.94,2.94,0,0,1,.13.83l-.09.26-.1,0a.72.72,0,0,1-.27-.08,4.51,4.51,0,0,1-.43-.25l-.46-.23-1.18-.55a4.52,4.52,0,0,1-.79-.41,6.42,6.42,0,0,1-.65-.48,5.36,5.36,0,0,0-.44-.34l-.63-.39c-.25-.15-.47-.28-.65-.41s-.33-.24-.44-.33c-.37-.29-.67-.52-.9-.68a1.17,1.17,0,0,0-.47-.23.48.48,0,0,0-.11.29c-.09.32-.17.72-.26,1.21s-.2,1.05-.3,1.69a.37.37,0,0,1-.07.26.2.2,0,0,1-.18.09.85.85,0,0,1-.6-.19.8.8,0,0,1-.2-.58,8.29,8.29,0,0,1,.07-1.09,9.48,9.48,0,0,1,.21-1.2c0-.19.06-.35.08-.5a2.91,2.91,0,0,0,0-.4,1,1,0,0,0-.41-.8c-.26-.23-.4-.39-.4-.48a.94.94,0,0,1,.07-.39.6.6,0,0,1,.2-.27l.62-.41a.18.18,0,0,0,.09-.13,1,1,0,0,0,0-.27v-.44c0-.6,0-1.23.05-1.88v-.22c0-.1,0-.24,0-.4a2,2,0,0,1,0-.34c0-.1,0-.2,0-.29s-.08-.25-.11-.35a1,1,0,0,1,0-.28,3.07,3.07,0,0,1,0-.38c0-.17,0-.3,0-.37a3.58,3.58,0,0,0,0-.4c0-.17,0-.3,0-.38a1.53,1.53,0,0,1,.16-.7,2.4,2.4,0,0,1,.52-.66,2.71,2.71,0,0,1,.68-.44,2,2,0,0,1,.72-.14c.12,0,.29,0,.51,0l.54,0a3.18,3.18,0,0,1,.72.22,2.65,2.65,0,0,1,.42.06l.29.07.4.19.2.08.3.1a1,1,0,0,1,.21.1l.31.14.4.19a4.89,4.89,0,0,1,.69.42,6,6,0,0,1,.6.53,2.79,2.79,0,0,1,.49.72,1.58,1.58,0,0,1,.16.69c0,.07,0,.17,0,.29a3.53,3.53,0,0,1-.06.42,1.27,1.27,0,0,1-.3.64,5.45,5.45,0,0,1-.8.75,10.26,10.26,0,0,1-.85.59,3.56,3.56,0,0,1-.73.34,1.39,1.39,0,0,0-.21.17,1.88,1.88,0,0,1-.42.29l-.89.45a15.46,15.46,0,0,1-1.44.66C299.86,539.73,299.72,539.84,299.72,540Zm-1.07-4.9a3.58,3.58,0,0,0,.37-.28.71.71,0,0,1,.45-.13q.12,0,.3.27a.86.86,0,0,1,.18.4,1.89,1.89,0,0,1-.06.32c0,.17-.08.4-.16.69-.15.66-.24,1.07-.26,1.24s-.07.42-.14.77l-.08.35a.22.22,0,0,0,0,.13.12.12,0,0,0,.1,0l2.09-1.05.17-.06.18-.08.15-.19,1.22-.8a2.55,2.55,0,0,0,.59-.6,1.06,1.06,0,0,0,.19-.59,1,1,0,0,0-.44-.74,4.34,4.34,0,0,0-1.31-.7,8.3,8.3,0,0,0-1.35-.43,4.68,4.68,0,0,0-1.11-.14,1.75,1.75,0,0,0-1,.23.75.75,0,0,0-.33.67,2.3,2.3,0,0,0,.05.53C298.55,535,298.59,535.08,298.65,535.06Z" transform="translate(-168.46 -262.46)"/><path class="cls-12" d="M306.83,543.41a8.73,8.73,0,0,1,0-1,4.48,4.48,0,0,1,.11-.62c0-.11,0-.23-.05-.35s0-.38.05-.71.08-.77.15-1.3.12-.92.16-1.2a3.57,3.57,0,0,1,.1-.51c0-.12,0-.24-.05-.38s0-.28-.09-.44l-.22-.17,0-.12,0-.57c0-.2,0-.39.07-.59a2.87,2.87,0,0,1,.1-.64q.07-.27.15-.48a.37.37,0,0,0,.07-.14,1.18,1.18,0,0,1,.1-.19l.18-.73c.06-.25.13-.48.19-.72a1.43,1.43,0,0,1,1.13-.83,4,4,0,0,1,.49-.23,1,1,0,0,1,.33-.07.24.24,0,0,1,.22.11.54.54,0,0,1,.08.31c0,.06,0,.24-.08.57s-.14.76-.25,1.33c0,.19-.06.42-.11.68s-.11.57-.19.93-.2.84-.3,1.32-.19,1-.27,1.58c0,.24-.07.48-.11.72s-.08.48-.11.72-.08.54-.11.79a5.73,5.73,0,0,0,0,.66,1.5,1.5,0,0,0,0,.22,1.37,1.37,0,0,1,0,.19,1,1,0,0,1,0,.3c0,.12,0,.26-.06.43s-.05.31-.07.44a2.44,2.44,0,0,0,0,.3q0,.53,0,.84a3.37,3.37,0,0,0,.05.43c.05.18.1.38.15.59s-.16.28-.46.51a1.42,1.42,0,0,1-.66.34.31.31,0,0,1-.22-.09,1.24,1.24,0,0,1-.2-.26,2.75,2.75,0,0,1-.11-.29.77.77,0,0,1,0-.25.63.63,0,0,1,0-.19.63.63,0,0,0,0-.19,2.13,2.13,0,0,0-.18-.51c0,.07,0,0,0,0Z" transform="translate(-168.46 -262.46)"/><path class="cls-12" d="M309.92,541.7c0-.07,0-.13,0-.18v-.12a1.66,1.66,0,0,1,.08-.58,1,1,0,0,1,.24-.4.83.83,0,0,1,.21-.12l.44-.19a1,1,0,0,0,.31-.22.51.51,0,0,0,.13-.31,1.5,1.5,0,0,1,.12-.33,4.09,4.09,0,0,1,.22-.39s.11-.28.24-.7.33-1.06.57-1.89c.07-.25.14-.46.2-.65l.18-.46a4.76,4.76,0,0,1,.53-1.14,4.2,4.2,0,0,0,.31-.44v-.05l-.31-.5.39-.46.51-.1c.1,0,.2-.11.28-.28a2.27,2.27,0,0,1,.44-.58,1.19,1.19,0,0,0,.23-.13,4.57,4.57,0,0,0,.4-.3,3,3,0,0,1,.37-.25.48.48,0,0,1,.23-.08.55.55,0,0,1,.4.11.37.37,0,0,1,.12.29,1.58,1.58,0,0,1-.23.65,1.53,1.53,0,0,0-.24.65.29.29,0,0,0,.05.17.31.31,0,0,0,.11.09l1.21.66c.07,0,.13.13.19.32a5.82,5.82,0,0,1,.13.76c0,.28.07.5.1.68a4,4,0,0,1,0,.43c-.05.29-.09.59-.14.89s.14.77.22,1.19-.08.81-.13,1.22a.36.36,0,0,0,0,.11.16.16,0,0,0,.08.06.34.34,0,0,1,.26.09.28.28,0,0,1,.09.22.6.6,0,0,1-.06.29.44.44,0,0,1-.16.17L318,540l-.1.1.13.63-.18,1.45c0,.12,0,.28,0,.47s-.05.41-.09.66-.12.33-.16.45a1.7,1.7,0,0,0-.05.25,3.29,3.29,0,0,1,.1.37c-.05.18-.09.36-.13.54s-.09.37-.13.54a1.15,1.15,0,0,1-.29.53.63.63,0,0,1-.43.17.22.22,0,0,1-.2-.12.82.82,0,0,1-.06-.35,2.13,2.13,0,0,1,0-.3,1.3,1.3,0,0,0,0-.29s0-.11,0-.2a1.83,1.83,0,0,1,0-.21c0-.19,0-.49.05-.91s.06-.73.06-.94-.07-.23-.1-.36,0-.26,0-.39a2.26,2.26,0,0,0,0-.37l.15-.27-.13-1-.07,0a.62.62,0,0,0-.18,0l-.29.14a2.39,2.39,0,0,1-.38.09,5.19,5.19,0,0,1-.69.06l-.34.16a3.4,3.4,0,0,0-.59.18l-.83.31-.5.21a1.23,1.23,0,0,1-.38.07.27.27,0,0,0-.21.09.85.85,0,0,0-.13.27,2.07,2.07,0,0,1-.15.44c-.07.19-.18.43-.31.72l-.11.34c-.05.16-.1.35-.16.58s-.09.2-.14.33-.12.29-.19.47,0,.18,0,.3l-.08.41c0,.09-.08.21-.14.36s-.13.31-.21.48a.56.56,0,0,1-.24.24.89.89,0,0,1-.4.08.31.31,0,0,1-.26-.12.53.53,0,0,1-.1-.36,3.58,3.58,0,0,1,.06-.61,7.38,7.38,0,0,1,.19-.74c.1-.36.18-.65.25-.88a2.43,2.43,0,0,0,.11-.5s.05-.13.09-.25.09-.27.14-.45.12-.36.18-.58l-.05-.08-.33,0a.17.17,0,0,1-.16-.09.33.33,0,0,1-.05-.21.47.47,0,0,1,0-.16A1.15,1.15,0,0,1,309.92,541.7Zm3.69-1.87a3.38,3.38,0,0,0,.69-.11,3.08,3.08,0,0,1,.69-.12l.29.06.5-.12a4.05,4.05,0,0,1,.5-.12.28.28,0,0,0,.15-.08.2.2,0,0,0,.05-.14,4.15,4.15,0,0,1,0-.42c0-.13,0-.27,0-.43s0-.33.08-.5l-.12-.45,0-.42c0-.15-.05-.29-.07-.42a1.21,1.21,0,0,1,0-.33l-.07-.13-.12-.2c-.06-.11-.13-.22-.2-.33a3.53,3.53,0,0,1-.21-.32,1,1,0,0,0-.31-.28.68.68,0,0,0-.33-.09c-.14,0-.28.11-.42.32a4.08,4.08,0,0,0-.4,1s-.07.16-.16.33-.23.39-.4.66a3.22,3.22,0,0,1-.27,1,13.27,13.27,0,0,1-.65,1.35.33.33,0,0,0-.06.12v.12a.15.15,0,0,0,0,.1.14.14,0,0,0,.11,0l.33,0Z" transform="translate(-168.46 -262.46)"/><path class="cls-12" d="M334.35,542.63q.22.5.39.93a1.9,1.9,0,0,1-.54.37,4.09,4.09,0,0,1-.78.31l-.29.08-.38.1-.71.06-1,.11a12.31,12.31,0,0,1-1.41,1,4.1,4.1,0,0,1-1,.46l-.15.13a4.46,4.46,0,0,1-.84.25c-.33.06-.72.12-1.16.17a.51.51,0,0,1-.25-.15,2.6,2.6,0,0,1-.29-.33c.06-.08.15-.17.25-.29s.22-.26.34-.43a1.23,1.23,0,0,1,.36-.36,1.5,1.5,0,0,1,.53-.2,5.17,5.17,0,0,0,.74-.2l.25-.17a3.49,3.49,0,0,0,.33-.21,2.47,2.47,0,0,0,.49-.31c.17-.14.36-.3.56-.5s.49-.47.65-.64l.3-.29a1.3,1.3,0,0,1,.17-.26,1.14,1.14,0,0,1,.22-.22c.1-.16.22-.37.36-.62l.51-.86.12-.14a1.68,1.68,0,0,1,.18-.21,1.51,1.51,0,0,0,.3-.71,6.43,6.43,0,0,0,.09-1.16,2.31,2.31,0,0,0-.24-1,4.85,4.85,0,0,0-.74-1.08,6.83,6.83,0,0,0-.88-.83,5.25,5.25,0,0,0-.95-.61l-.68-.36-.59-.32c-.09.34-.21.81-.36,1.4s-.31,1.32-.49,2.18-.35,1.74-.46,2.33a8.56,8.56,0,0,0-.15,1.19c0,.16-.07.33-.1.5l-.41,2a6.44,6.44,0,0,1-.61,1c-.17.23-.3.34-.39.34s-.1,0-.14-.12a1.77,1.77,0,0,1-.12-.37l.12-.58a1.07,1.07,0,0,1-.06-.17l.12-1.34c0-.45.07-.9.11-1.35s.08-1,.15-1.41.14-.85.22-1.22l-.12-.52a3.24,3.24,0,0,0,.13-.48c0-.19.07-.4.1-.65s.05-.56.07-.76a1.84,1.84,0,0,1,.07-.4c0-.09,0-.2.09-.33l.1-.49a1.38,1.38,0,0,1,.36-.43,2.93,2.93,0,0,0,.41-.49,1.22,1.22,0,0,0,.32-.08.17.17,0,0,0,.1-.15s0-.09-.12-.12a1.06,1.06,0,0,0-.35-.08l-.26,0a1.42,1.42,0,0,1-.3-.09l-.83-.4a1.54,1.54,0,0,1-.4-.25.31.31,0,0,1-.14-.25c0-.14.07-.27.1-.41l-.12-.33a.68.68,0,0,1,0-.21.21.21,0,0,1,0-.14.17.17,0,0,1,.13-.05l.5.09.2-.06.2-.08a1.94,1.94,0,0,1,.44,0,1.11,1.11,0,0,1,.29.07l.3.15.29.15.33,0a.2.2,0,0,1,.11,0,1.4,1.4,0,0,0,.3.14,1.8,1.8,0,0,0,.39.12l.42.09.27.09c.72.38,1.35.73,1.89,1.06a10.19,10.19,0,0,1,1.34,1,5,5,0,0,1,1.23,1.54,4,4,0,0,1,.39,1.72,6.49,6.49,0,0,1-.84,3,15.39,15.39,0,0,1-2.51,3.36l.37-.13.54-.17,1.32-.31a4,4,0,0,0,.73-.27A1.52,1.52,0,0,0,334.35,542.63Z" transform="translate(-168.46 -262.46)"/><path class="cls-12" d="M335.68,543.41a8.73,8.73,0,0,1,0-1,4.48,4.48,0,0,1,.11-.62c0-.11,0-.23-.05-.35a6.1,6.1,0,0,1,.05-.71c0-.33.08-.77.15-1.3s.11-.92.16-1.2a4.34,4.34,0,0,1,.09-.51c0-.12,0-.24,0-.38s-.05-.28-.09-.44l-.22-.17-.05-.12,0-.57a5.93,5.93,0,0,1,.07-.59,2.87,2.87,0,0,1,.1-.64q.08-.27.15-.48a.6.6,0,0,0,.07-.14,1.18,1.18,0,0,1,.1-.19l.18-.73c.06-.25.13-.48.19-.72a1.33,1.33,0,0,1,.44-.55,1.42,1.42,0,0,1,.69-.28,4,4,0,0,1,.49-.23.93.93,0,0,1,.32-.07.26.26,0,0,1,.23.11.54.54,0,0,1,.08.31c0,.06,0,.24-.08.57s-.14.76-.26,1.33c0,.19-.05.42-.1.68s-.11.57-.19.93-.2.84-.3,1.32-.19,1-.27,1.58c0,.24-.07.48-.11.72s-.08.48-.11.72-.08.54-.11.79a5.73,5.73,0,0,0-.05.66,1.5,1.5,0,0,0,0,.22,1.28,1.28,0,0,1,0,.19.75.75,0,0,1,0,.3c0,.12,0,.26-.06.43s-.05.31-.07.44a2.44,2.44,0,0,0,0,.3q0,.53,0,.84a2.15,2.15,0,0,0,0,.43c.05.18.1.38.15.59s-.16.28-.46.51a1.42,1.42,0,0,1-.66.34.31.31,0,0,1-.22-.09,1,1,0,0,1-.2-.26,2.75,2.75,0,0,1-.11-.29.77.77,0,0,1,0-.25.63.63,0,0,1,0-.19.63.63,0,0,0,0-.19,3.63,3.63,0,0,0-.18-.51c0,.07,0,0,0,0Z" transform="translate(-168.46 -262.46)"/><path class="cls-13" d="M282.38,567.62l.39.93a3.2,3.2,0,0,1-.27.22l-.37.25c-.15.05-.32.12-.52.21l-.68.3a5.48,5.48,0,0,1-.49.27.61.61,0,0,1-.26.1,1.79,1.79,0,0,0-.48.11c-.23.07-.54.18-.92.33l-.64.23c-.23.08-.47.15-.71.21l-.63-.13-.39.17H276l-.38,0a1.15,1.15,0,0,1-.44-.08.23.23,0,0,1-.15-.2l.06-.39-.06-.07a.81.81,0,0,1-.46-.09c-.08-.06-.12-.21-.12-.43s0-.27,0-.51,0-.54,0-.92a.63.63,0,0,1,.07-.22.79.79,0,0,0,.07-.23.64.64,0,0,1-.07-.16s0-.08,0-.11c0-.27.05-.59.09-1s.1-.84.17-1.37a9.11,9.11,0,0,0,.2-1.08c0-.3,0-.6,0-.91.25-1.13.51-2.26.77-3.4a1.8,1.8,0,0,1,.23-.58,3.88,3.88,0,0,1,.4-.53l.14-.11a2,2,0,0,1,.13-.23l.19-.31.2-.12.37-.22c.07-.06.15-.12.23-.2l.31-.26a6.53,6.53,0,0,0,.72-.5,1.73,1.73,0,0,1,.82-.32l.47,0,.45,0,.35-.05.18,0,.14,0,.17,0,.29,0H282a1.14,1.14,0,0,1,.6.36.85.85,0,0,1,.2.56,3,3,0,0,1-.14,1,.46.46,0,0,1-.43.34.88.88,0,0,1-.51-.23,3.07,3.07,0,0,0-1.54-.23l-1,.21-.12.12-.12.06-.35-.13a1,1,0,0,0-.37.33,4.9,4.9,0,0,0-.42.75.88.88,0,0,0-.08.26,1.83,1.83,0,0,0,0,.35c-.12.49-.24,1-.36,1.42s-.21.85-.28,1.11-.12.4-.13.45a1.46,1.46,0,0,0,0,.2,1.1,1.1,0,0,0,0,.18.34.34,0,0,0,.05.2.17.17,0,0,0,.15.07q.09,0,.45-.33a1.37,1.37,0,0,1,.52-.38l.43-.13.45-.17a3.35,3.35,0,0,1,.49-.08l1.09-.13.28.08.54-.1.29.14a1.68,1.68,0,0,1,.19.24q.08.15.15.33a2.46,2.46,0,0,1-.13.92.43.43,0,0,1-.4.31l-.56-.22-1.36.14-1.38.13a2.79,2.79,0,0,0-1.31.56,1.37,1.37,0,0,0-.51,1,3.89,3.89,0,0,1-.07.41c0,.18-.09.41-.14.68l.07.3c-.06.3-.11.57-.14.83a4.39,4.39,0,0,0-.05.69.28.28,0,0,0,0,.15s0,0,.07,0l.78-.06a3.28,3.28,0,0,1,.42,0l.54,0,.64-.05a3.9,3.9,0,0,0,.44-.16,1.51,1.51,0,0,1,.61-.15,3.05,3.05,0,0,0,.6-.06,3.41,3.41,0,0,0,.57-.16l.55-.21.54-.21a1.27,1.27,0,0,0,.27-.11Z" transform="translate(-168.46 -262.46)"/><path class="cls-13" d="M284.27,560.58c0-.14,0-.28-.07-.43,0,.06,0,0,0-.14s0-.43.08-.81a.88.88,0,0,0,.12-.2l.06-.15-.13-.19a.27.27,0,0,1-.05-.13c.06-.41.11-.8.15-1.18a.66.66,0,0,1,.18-.34,3.28,3.28,0,0,1,.46-.42,4,4,0,0,1,.46-.33l.43-.21a.84.84,0,0,0,.32-.15.17.17,0,0,1,.12-.06.28.28,0,0,1,.25.16,1.21,1.21,0,0,1,.08.49,2.34,2.34,0,0,1-.08.48,1.76,1.76,0,0,0-.09.44s0,.2,0,.47,0,.66,0,1.17a5.56,5.56,0,0,0,.16,1.17,13,13,0,0,0,.38,1.29,4.49,4.49,0,0,0,.68,1.31,1.06,1.06,0,0,0,.8.43,1.69,1.69,0,0,0,.92-.45,9.84,9.84,0,0,0,1.34-1.34c.39-.46.75-.89,1.05-1.29a9.86,9.86,0,0,0,.75-1.1,4.16,4.16,0,0,1,.62-.8,4.43,4.43,0,0,1,.82-.65l.23-.14a.39.39,0,0,1,.14-.05c.12,0,.21.1.28.28a2.73,2.73,0,0,1,.09.81c0,.33-.07.66-.1,1-.06.51-.15,1-.27,1.58s-.27,1.12-.46,1.71l-.24.78a3.85,3.85,0,0,0-.14.57q0,.14-.06.33c0,.14-.05.29-.08.47a4.46,4.46,0,0,1-.22.5,2.54,2.54,0,0,0-.17.49c0,.19-.08.41-.11.66,0,0,0,.11,0,.19a1.64,1.64,0,0,0,0,.23q-.24,1-.48,2l-.09.24a.78.78,0,0,0-.3.17,2.42,2.42,0,0,0-.35.36,2.05,2.05,0,0,1-.31.3.33.33,0,0,1-.18.1.19.19,0,0,1-.13-.05s-.05-.09-.05-.17a.23.23,0,0,1,0-.13,5.13,5.13,0,0,0,.25-1c.07-.43.13-1,.19-1.61,0-.13.07-.5.17-1.09s.25-1.43.45-2.48c0-.17.06-.38.1-.63s.1-.53.17-.85q.08-.24.12-.42a1.16,1.16,0,0,0,0-.26.28.28,0,0,0,0-.15.14.14,0,0,0-.11,0,.45.45,0,0,0-.22.15,4.86,4.86,0,0,0-.41.48c-.1.11-.19.23-.29.36s-.2.26-.31.38-.35.37-.51.54L290,564l-.25.15-.35.22a1.64,1.64,0,0,1-.62.52,1.66,1.66,0,0,1-.78.22,1.46,1.46,0,0,1-.82-.27,2.94,2.94,0,0,1-.75-.83l-.32-.55-.34-.55h-.06a4.86,4.86,0,0,0-.18.83c-.09.5-.21,1.25-.35,2.23s-.28,1.8-.36,2.38a10.89,10.89,0,0,0-.12,1.12,1.32,1.32,0,0,1-.13.53.41.41,0,0,1-.33.22l-.31.06-.49.11a.12.12,0,0,1-.09,0,.08.08,0,0,1,0-.08l.06-.37-.1-.39.12-.61c0-.41.05-.79.07-1.15a2.19,2.19,0,0,1,.07-.37,1.58,1.58,0,0,0,.07-.4,1,1,0,0,0,0-.21,1,1,0,0,1,0-.21,11.14,11.14,0,0,1,.18-1.65,11.35,11.35,0,0,0,.18-1.67c0-.16-.05-.31-.08-.47s.09-.55.17-.91S284.18,561.06,284.27,560.58Z" transform="translate(-168.46 -262.46)"/><path class="cls-13" d="M296.06,568.39a8.44,8.44,0,0,1,.05-1,3.07,3.07,0,0,1,.11-.61c0-.12,0-.24-.06-.36a6.81,6.81,0,0,1,.06-.71c0-.33.08-.77.15-1.3s.11-.92.16-1.2a4.34,4.34,0,0,1,.09-.51c0-.12,0-.24,0-.38s-.05-.28-.09-.44l-.22-.17,0-.12,0-.57a4,4,0,0,1,.07-.59,3,3,0,0,1,.09-.64c0-.18.11-.34.16-.48l.07-.14a1.07,1.07,0,0,1,.09-.19l.19-.73c.06-.25.12-.48.19-.71a1.36,1.36,0,0,1,.44-.56,1.53,1.53,0,0,1,.69-.28,4,4,0,0,1,.49-.23.93.93,0,0,1,.32-.07.23.23,0,0,1,.22.11.48.48,0,0,1,.09.31,5.23,5.23,0,0,1-.09.57c0,.32-.13.77-.25,1.34,0,.19,0,.41-.1.67s-.11.57-.19.93-.21.84-.3,1.32-.19,1-.27,1.58c0,.24-.07.48-.11.72s-.08.48-.12.72-.07.54-.1.79a5.73,5.73,0,0,0-.05.67,1.49,1.49,0,0,0,0,.21,1.28,1.28,0,0,1,0,.19,1.49,1.49,0,0,1,0,.3c0,.12,0,.26-.06.43s-.05.31-.07.45a2.13,2.13,0,0,0,0,.3c0,.34,0,.62,0,.83a2.84,2.84,0,0,0,.06.43c0,.18.09.38.14.59s-.15.28-.46.51a1.34,1.34,0,0,1-.66.34.29.29,0,0,1-.21-.09.71.71,0,0,1-.2-.26,1.31,1.31,0,0,1-.11-.29.75.75,0,0,1,0-.24.68.68,0,0,1,0-.2,1.3,1.3,0,0,0,0-.19,3.25,3.25,0,0,0-.19-.51c0,.07,0,.06,0,0Z" transform="translate(-168.46 -262.46)"/><path class="cls-13" d="M305.62,567.62a10.07,10.07,0,0,1,.4.93c-.08.13-.17.26-.24.39s-.16.27-.24.42a1.18,1.18,0,0,1-.32.31,2.37,2.37,0,0,1-.45.23c-.24.09-.47.18-.69.28l-.59.27a2.18,2.18,0,0,1-.63.18l-.66.09a2.26,2.26,0,0,1-.44.08h-.66a.49.49,0,0,1-.17-.06l-.18-.12-.16-.11-.27-.16c-.08,0-.14-.18-.18-.4a7.82,7.82,0,0,1-.05-1,6.27,6.27,0,0,1,.25-1.42,6.71,6.71,0,0,0,.26-1.31s0-.11,0-.19a.9.9,0,0,1,0-.21,9,9,0,0,1,.19-1.3,7.82,7.82,0,0,0,.2-1.41.3.3,0,0,0-.15-.28.29.29,0,0,1-.14-.26,3.84,3.84,0,0,1,0-.55,4,4,0,0,1,.14-.67c.05-.19.11-.39.15-.59s.1-.4.14-.58.1-.45.15-.69.1-.45.13-.67a4.52,4.52,0,0,1,.19-.54l.32-.75c.06-.13.11-.26.16-.38s.1-.24.15-.38a.93.93,0,0,1,.24-.29,1.81,1.81,0,0,1,.37-.23,3,3,0,0,1,.33-.1.7.7,0,0,1,.19,0,.46.46,0,0,1,.4.19,1,1,0,0,1,.13.57c0,.09,0,.18,0,.28a2,2,0,0,1-.07.37c0,.14-.05.26-.08.36s0,.18-.05.25,0,.31,0,.44,0,.26-.06.38a3.08,3.08,0,0,1-.16.29c-.05.32-.09.59-.12.8a3.68,3.68,0,0,0,0,.45,3.38,3.38,0,0,1-.22,1.08,3.2,3.2,0,0,0-.22,1,2.11,2.11,0,0,1-.05.37,4.62,4.62,0,0,1-.15.54c-.08.29-.13.51-.18.66a1.7,1.7,0,0,1-.09.29c0,.1,0,.22,0,.35s0,.3-.08.48c-.15.74-.27,1.35-.35,1.84a7.19,7.19,0,0,0-.12,1.09,1.45,1.45,0,0,0,.08.52q.06.18.21.18a6.46,6.46,0,0,0,1.3-.14,10.45,10.45,0,0,0,1.36-.42l.16,0,.16-.06a1.26,1.26,0,0,0,.18-.27,1.52,1.52,0,0,0,.23-.16Z" transform="translate(-168.46 -262.46)"/><path class="cls-13" d="M307,568.39a6.62,6.62,0,0,1,.05-1,4.27,4.27,0,0,1,.1-.61c0-.12,0-.24-.05-.36s0-.38.05-.71.09-.77.15-1.3.12-.92.16-1.2.08-.45.1-.51,0-.24-.05-.38a2.76,2.76,0,0,0-.08-.44l-.23-.17-.05-.12c0-.19,0-.38,0-.57a5.9,5.9,0,0,1,.06-.59,3.74,3.74,0,0,1,.1-.64,3.85,3.85,0,0,1,.16-.48.64.64,0,0,0,.06-.14l.1-.19.18-.73c.06-.25.13-.48.2-.71a1.34,1.34,0,0,1,.43-.56,1.53,1.53,0,0,1,.69-.28,4.89,4.89,0,0,1,.49-.23,1,1,0,0,1,.33-.07.24.24,0,0,1,.22.11.48.48,0,0,1,.08.31,4.18,4.18,0,0,1-.08.57c-.05.32-.14.77-.25,1.34,0,.19-.06.41-.1.67s-.12.57-.2.93-.2.84-.3,1.32-.19,1-.27,1.58c0,.24-.07.48-.11.72s-.08.48-.11.72-.08.54-.11.79a5.56,5.56,0,0,0,0,.67,1.48,1.48,0,0,0,0,.21,1.37,1.37,0,0,1,0,.19,1,1,0,0,1,0,.3c0,.12,0,.26-.05.43s-.05.31-.07.45a1.24,1.24,0,0,0,0,.3c0,.34,0,.62,0,.83a2.84,2.84,0,0,0,.06.43c0,.18.09.38.14.59s-.15.28-.46.51a1.34,1.34,0,0,1-.66.34.33.33,0,0,1-.22-.09,1,1,0,0,1-.2-.26c0-.1-.08-.2-.11-.29a.75.75,0,0,1,0-.24.68.68,0,0,1,0-.2.63.63,0,0,0,0-.19A2.51,2.51,0,0,0,307,569c0,.07,0,.06,0,0Z" transform="translate(-168.46 -262.46)"/><path class="cls-13" d="M310.82,563.94a.93.93,0,0,1,.08-.32,2,2,0,0,1,.23-.41l.32-.48a.8.8,0,0,0,.11-.22l.14-.3.2-.42a1.5,1.5,0,0,0,.23-.48c.09-.25.19-.57.31-1,.05-.11.11-.24.17-.39s.14-.33.22-.54a3.2,3.2,0,0,1,.16-.55c.07-.21.17-.45.28-.7s.29-.49.45-.73a1.44,1.44,0,0,1,.67-.53,1.21,1.21,0,0,1,.26.23.34.34,0,0,1,.1.21,1.59,1.59,0,0,1-.23.68,1.45,1.45,0,0,0-.23.57.21.21,0,0,0,.09.16,1.85,1.85,0,0,0,.29-.25c.15-.13.33-.32.56-.55a5.58,5.58,0,0,1,.52-.43,1.14,1.14,0,0,1,.43-.21l.33-.09a3.67,3.67,0,0,0,.46-.13l.21-.14a.7.7,0,0,1,.23-.13l.15,0a1.08,1.08,0,0,0,.51.19,2.81,2.81,0,0,0,.53.1,1.17,1.17,0,0,1,.21.16,2.39,2.39,0,0,0,.32.25,2.62,2.62,0,0,1,.75.71,5.2,5.2,0,0,1,.64,1.18,7.22,7.22,0,0,1,.4,1.22,4.89,4.89,0,0,1,.14,1.11,9,9,0,0,1-.43,3,4.84,4.84,0,0,1-1.29,2.06l-.2.19-.29.28v.11a.4.4,0,0,1-.12.22,2.1,2.1,0,0,1-.26.27l-.77.7c-.25.23-.52.46-.79.69a5.87,5.87,0,0,1-1,.69,3.16,3.16,0,0,1-.88.35,1.22,1.22,0,0,1-.45.25,2.1,2.1,0,0,1-.66.09,4.48,4.48,0,0,1-.92-.08,1,1,0,0,1-.51-.22l-.21-.18c-.09-.06-.18-.14-.29-.23a1.25,1.25,0,0,1-.32-.49,4.12,4.12,0,0,1-.28-.91c-.05-.27-.1-.54-.13-.8a6.53,6.53,0,0,1,0-.73,1.43,1.43,0,0,1,.05-.34,1.28,1.28,0,0,0,0-.35c0-.16,0-.29,0-.41a2.74,2.74,0,0,1,.11-.58,2.19,2.19,0,0,0,.11-.63.37.37,0,0,0-.06-.15,1.42,1.42,0,0,0-.23.33.56.56,0,0,1-.14.16.37.37,0,0,1-.16,0,.2.2,0,0,1-.17-.09.47.47,0,0,1-.07-.28,1.64,1.64,0,0,1,.06-.36A2.47,2.47,0,0,0,310.82,563.94Zm6.1-5a2.2,2.2,0,0,0-.5.06,3.93,3.93,0,0,0-.52.17l-1,.44a1,1,0,0,0-.23.16,2.22,2.22,0,0,0-.28.31l-.47.58a2.33,2.33,0,0,0-.39,1,14.88,14.88,0,0,0-.31,1.83c-.07.58-.12,1.11-.14,1.61s0,1,0,1.38a3.79,3.79,0,0,0,.39,1.93,1.33,1.33,0,0,0,1.2.63,2.08,2.08,0,0,0,.85-.2,4.84,4.84,0,0,0,1-.6,6.64,6.64,0,0,0,.83-.7,4.72,4.72,0,0,0,.59-.71c.06-.1.17-.3.32-.6s.34-.72.6-1.25a7.46,7.46,0,0,0,.4-1.18,5.43,5.43,0,0,0,.14-1.22c0-.21-.08-.41-.13-.6l.07-.44a2.22,2.22,0,0,1-.17-.22c0-.06,0-.1-.05-.14a3.87,3.87,0,0,0-.86-1.65A1.77,1.77,0,0,0,316.92,559Z" transform="translate(-168.46 -262.46)"/><circle class="cls-14" cx="64.08" cy="218.77" r="2.38"/><circle class="cls-15" cx="153.34" cy="229.16" r="7.07"/><circle cx="151.71" cy="232.61" r="7.07"/><circle class="cls-15" cx="111.66" cy="207.3" r="7.07"/><circle cx="110.04" cy="210.75" r="7.07"/><circle class="cls-15" cx="65.88" cy="226.61" r="7.07"/><ellipse cx="67.15" cy="223.5" rx="8.33" ry="7.07"/><circle class="cls-15" cx="163.36" cy="212.64" r="7.07"/><circle class="cls-14" cx="131.71" cy="221.63" r="2.38"/><circle class="cls-14" cx="112.6" cy="233.32" r="1.19"/><circle class="cls-15" cx="134.36" cy="217.83" r="7.07"/><circle cx="147.39" cy="210.43" r="11.09"/><circle class="cls-14" cx="154.63" cy="219.19" r="1.66"/><circle class="cls-16" cx="89.84" cy="231.98" r="1.7"/><circle class="cls-15" cx="88.49" cy="224.97" r="7.64"/><circle cx="82.95" cy="221.52" r="7.64"/><circle class="cls-16" cx="145.57" cy="225.97" r="1.36"/><ellipse class="cls-9" cx="119.01" cy="21.84" rx="1.33" ry="10.65"/><circle class="cls-15" cx="182.25" cy="223.5" r="7.07"/><circle class="cls-16" cx="178.78" cy="229.51" r="1.83"/><circle cx="178.47" cy="222.99" r="7.07"/><circle cx="161.73" cy="216.09" r="7.07"/><circle class="cls-14" cx="203" cy="227.12" r="1.66"/></svg>
